# MagicaVoxel @ Ephtracy

# group
o 

# material
mtllib ceilinglight.mtl
usemtl palette

# normals
vn -1 0 0
vn 1 0 0
vn 0 0 1
vn 0 0 -1
vn 0 -1 0
vn 0 1 0

# texcoords
vt 0.0214844 0.5
vt 0.994141 0.5

# verts
v 0.5 1.2 -0.5
v 0.5 1.2 -1
v 0.5 1.3 -0.5
v 0.5 1.3 -1
v 0.6 1.1 -0.6
v 0.6 1.1 -0.9
v 0.6 1.2 -0.6
v 0.6 1.2 -0.9
v 0.6 1.3 -0.6
v 0.6 1.3 -0.9
v 0.6 1.5 -0.6
v 0.6 1.5 -0.9
v 0.7 1.5 -0.7
v 0.7 1.5 -0.8
v 0.7 2 -0.7
v 0.7 2 -0.8
v 0.8 1.5 -0.7
v 0.8 1.5 -0.8
v 0.8 2 -0.7
v 0.8 2 -0.8
v 0.9 1.1 -0.6
v 0.9 1.1 -0.9
v 0.9 1.2 -0.6
v 0.9 1.2 -0.9
v 0.9 1.3 -0.6
v 0.9 1.3 -0.9
v 0.9 1.5 -0.6
v 0.9 1.5 -0.9
v 1 1.2 -0.5
v 1 1.2 -1
v 1 1.3 -0.5
v 1 1.3 -1
v 0.5 1.2 -0.5
v 0.5 1.3 -0.5
v 1 1.2 -0.5
v 1 1.3 -0.5
v 0.6 1.1 -0.6
v 0.6 1.2 -0.6
v 0.6 1.3 -0.6
v 0.6 1.5 -0.6
v 0.9 1.1 -0.6
v 0.9 1.2 -0.6
v 0.9 1.3 -0.6
v 0.9 1.5 -0.6
v 0.7 1.5 -0.7
v 0.7 2 -0.7
v 0.8 1.5 -0.7
v 0.8 2 -0.7
v 0.7 1.5 -0.8
v 0.7 2 -0.8
v 0.8 1.5 -0.8
v 0.8 2 -0.8
v 0.6 1.1 -0.9
v 0.6 1.2 -0.9
v 0.6 1.3 -0.9
v 0.6 1.5 -0.9
v 0.9 1.1 -0.9
v 0.9 1.2 -0.9
v 0.9 1.3 -0.9
v 0.9 1.5 -0.9
v 0.5 1.2 -1
v 0.5 1.3 -1
v 1 1.2 -1
v 1 1.3 -1
v 0.6 1.1 -0.6
v 0.9 1.1 -0.6
v 0.6 1.1 -0.9
v 0.9 1.1 -0.9
v 0.5 1.2 -0.5
v 1 1.2 -0.5
v 0.6 1.2 -0.6
v 0.9 1.2 -0.6
v 0.6 1.2 -0.9
v 0.9 1.2 -0.9
v 0.5 1.2 -1
v 1 1.2 -1
v 0.5 1.3 -0.5
v 1 1.3 -0.5
v 0.6 1.3 -0.6
v 0.9 1.3 -0.6
v 0.6 1.3 -0.9
v 0.9 1.3 -0.9
v 0.5 1.3 -1
v 1 1.3 -1
v 0.6 1.5 -0.6
v 0.9 1.5 -0.6
v 0.7 1.5 -0.7
v 0.8 1.5 -0.7
v 0.7 1.5 -0.8
v 0.8 1.5 -0.8
v 0.6 1.5 -0.9
v 0.9 1.5 -0.9
v 0.7 2 -0.7
v 0.8 2 -0.7
v 0.7 2 -0.8
v 0.8 2 -0.8

# faces
f 3/2/1 2/2/1 1/2/1
f 4/2/1 2/2/1 3/2/1
f 7/1/1 6/1/1 5/1/1
f 8/1/1 6/1/1 7/1/1
f 11/2/1 10/2/1 9/2/1
f 12/2/1 10/2/1 11/2/1
f 15/2/1 14/2/1 13/2/1
f 16/2/1 14/2/1 15/2/1
f 17/2/2 18/2/2 19/2/2
f 19/2/2 18/2/2 20/2/2
f 21/1/2 22/1/2 23/1/2
f 23/1/2 22/1/2 24/1/2
f 25/2/2 26/2/2 27/2/2
f 27/2/2 26/2/2 28/2/2
f 29/2/2 30/2/2 31/2/2
f 31/2/2 30/2/2 32/2/2
f 35/2/3 34/2/3 33/2/3
f 36/2/3 34/2/3 35/2/3
f 41/1/3 38/1/3 37/1/3
f 42/1/3 38/1/3 41/1/3
f 43/2/3 40/2/3 39/2/3
f 44/2/3 40/2/3 43/2/3
f 47/2/3 46/2/3 45/2/3
f 48/2/3 46/2/3 47/2/3
f 49/2/4 50/2/4 51/2/4
f 51/2/4 50/2/4 52/2/4
f 53/1/4 54/1/4 57/1/4
f 57/1/4 54/1/4 58/1/4
f 55/2/4 56/2/4 59/2/4
f 59/2/4 56/2/4 60/2/4
f 61/2/4 62/2/4 63/2/4
f 63/2/4 62/2/4 64/2/4
f 67/1/5 66/1/5 65/1/5
f 68/1/5 66/1/5 67/1/5
f 71/2/5 70/2/5 69/2/5
f 72/2/5 70/2/5 71/2/5
f 73/2/5 71/2/5 69/2/5
f 74/2/5 70/2/5 72/2/5
f 75/2/5 73/2/5 69/2/5
f 75/2/5 74/2/5 73/2/5
f 76/2/5 70/2/5 74/2/5
f 76/2/5 74/2/5 75/2/5
f 77/2/6 78/2/6 79/2/6
f 79/2/6 78/2/6 80/2/6
f 77/2/6 79/2/6 81/2/6
f 80/2/6 78/2/6 82/2/6
f 77/2/6 81/2/6 83/2/6
f 81/2/6 82/2/6 83/2/6
f 82/2/6 78/2/6 84/2/6
f 83/2/6 82/2/6 84/2/6
f 85/2/6 86/2/6 87/2/6
f 87/2/6 86/2/6 88/2/6
f 85/2/6 87/2/6 89/2/6
f 88/2/6 86/2/6 90/2/6
f 85/2/6 89/2/6 91/2/6
f 89/2/6 90/2/6 91/2/6
f 90/2/6 86/2/6 92/2/6
f 91/2/6 90/2/6 92/2/6
f 93/2/6 94/2/6 95/2/6
f 95/2/6 94/2/6 96/2/6
