# MagicaVoxel @ Ephtracy

# group
o 

# material
mtllib computertable.mtl
usemtl palette

# normals
vn -1 0 0
vn 1 0 0
vn 0 0 1
vn 0 0 -1
vn 0 -1 0
vn 0 1 0

# texcoords
vt 0.958984 0.5
vt 0.990234 0.5
vt 0.994141 0.5

# verts
v 0.4 1 -1
v 0.4 1 -1.2
v 0.4 1 -3.8
v 0.4 1 -4
v 0.4 2.7 -1.2
v 0.4 2.7 -3.8
v 0.4 3.1 -1
v 0.4 3.1 -4
v 1.4 3.1 -1.7
v 1.4 3.1 -3.3
v 1.4 3.2 -1.7
v 1.4 3.2 -3.3
v 1.6 3.1 -1.1
v 1.6 3.1 -1.7
v 1.6 3.1 -1.8
v 1.6 3.1 -3.1
v 1.6 3.2 -1.7
v 1.6 3.2 -1.8
v 1.6 3.3 -1.1
v 1.6 3.3 -1.9
v 1.6 5 -1.9
v 1.6 5 -3.1
v 1.7 3.6 -3.1
v 1.7 3.6 -3.2
v 1.7 4.9 -3.1
v 1.7 4.9 -3.2
v 1.8 3.7 -3.2
v 1.8 3.7 -3.4
v 1.8 4.8 -3.2
v 1.8 4.8 -3.4
v 2 3.1 -3.1
v 2 3.1 -3.2
v 2 3.2 -3.1
v 2 3.2 -3.2
v 4.4 1 -1
v 4.4 1 -1.2
v 4.4 1 -3.8
v 4.4 1 -4
v 4.4 2.7 -1.1
v 4.4 2.7 -1.2
v 4.4 2.7 -3.8
v 4.4 2.7 -3.9
v 4.4 2.8 -1
v 4.4 2.8 -1.1
v 4.4 2.8 -3.9
v 4.4 2.8 -4
v 0.6 1 -1
v 0.6 1 -1.2
v 0.6 1 -3.8
v 0.6 1 -4
v 0.6 2.7 -1.1
v 0.6 2.7 -1.2
v 0.6 2.7 -3.8
v 0.6 2.7 -3.9
v 0.6 2.8 -1
v 0.6 2.8 -1.1
v 0.6 2.8 -3.9
v 0.6 2.8 -4
v 1.5 3.1 -1.8
v 1.5 3.1 -3.2
v 1.5 3.2 -1.8
v 1.5 3.2 -3.2
v 2.1 3.1 -3.1
v 2.1 3.1 -3.3
v 2.1 3.2 -3.1
v 2.1 3.2 -3.3
v 3.2 3.7 -3.2
v 3.2 3.7 -3.4
v 3.2 4.8 -3.2
v 3.2 4.8 -3.4
v 3.3 3.6 -3.1
v 3.3 3.6 -3.2
v 3.3 4.9 -3.1
v 3.3 4.9 -3.2
v 3.4 3.1 -1.1
v 3.4 3.1 -3.1
v 3.4 3.3 -1.1
v 3.4 3.3 -1.9
v 3.4 5 -1.9
v 3.4 5 -3.1
v 4.6 1 -1
v 4.6 1 -1.2
v 4.6 1 -3.8
v 4.6 1 -4
v 4.6 2.7 -1.2
v 4.6 2.7 -3.8
v 4.6 3.1 -1
v 4.6 3.1 -4
v 0.4 1 -1
v 0.4 3.1 -1
v 0.6 1 -1
v 0.6 2.8 -1
v 4.4 1 -1
v 4.4 2.8 -1
v 4.6 1 -1
v 4.6 3.1 -1
v 0.6 2.7 -1.1
v 0.6 2.8 -1.1
v 1.6 3.1 -1.1
v 1.6 3.3 -1.1
v 3.4 3.1 -1.1
v 3.4 3.3 -1.1
v 4.4 2.7 -1.1
v 4.4 2.8 -1.1
v 1.4 3.1 -1.7
v 1.4 3.2 -1.7
v 1.6 3.1 -1.7
v 1.6 3.2 -1.7
v 1.6 3.3 -1.9
v 1.6 5 -1.9
v 1.7 3.7 -1.9
v 1.7 4.9 -1.9
v 2.7 3.3 -1.9
v 2.7 3.4 -1.9
v 2.7 3.5 -1.9
v 2.7 3.6 -1.9
v 3.2 3.3 -1.9
v 3.2 3.4 -1.9
v 3.2 3.5 -1.9
v 3.2 3.6 -1.9
v 3.3 3.7 -1.9
v 3.3 4.9 -1.9
v 3.4 3.3 -1.9
v 3.4 5 -1.9
v 1.5 3.1 -3.2
v 1.5 3.2 -3.2
v 2 3.1 -3.2
v 2 3.2 -3.2
v 0.4 1 -3.8
v 0.4 2.7 -3.8
v 0.6 1 -3.8
v 0.6 2.7 -3.8
v 4.4 1 -3.8
v 4.4 2.7 -3.8
v 4.6 1 -3.8
v 4.6 2.7 -3.8
v 0.4 1 -1.2
v 0.4 2.7 -1.2
v 0.6 1 -1.2
v 0.6 2.7 -1.2
v 4.4 1 -1.2
v 4.4 2.7 -1.2
v 4.6 1 -1.2
v 4.6 2.7 -1.2
v 1.5 3.1 -1.8
v 1.5 3.2 -1.8
v 1.6 3.1 -1.8
v 1.6 3.2 -1.8
v 1.6 3.1 -3.1
v 1.6 5 -3.1
v 1.7 3.6 -3.1
v 1.7 4.9 -3.1
v 2 3.1 -3.1
v 2 3.2 -3.1
v 2.1 3.1 -3.1
v 2.1 3.2 -3.1
v 3.3 3.6 -3.1
v 3.3 4.9 -3.1
v 3.4 3.1 -3.1
v 3.4 5 -3.1
v 1.7 3.6 -3.2
v 1.7 4.9 -3.2
v 1.8 3.7 -3.2
v 1.8 4.8 -3.2
v 3.2 3.7 -3.2
v 3.2 4.8 -3.2
v 3.3 3.6 -3.2
v 3.3 4.9 -3.2
v 1.4 3.1 -3.3
v 1.4 3.2 -3.3
v 2.1 3.1 -3.3
v 2.1 3.2 -3.3
v 1.8 3.7 -3.4
v 1.8 4.8 -3.4
v 3.2 3.7 -3.4
v 3.2 4.8 -3.4
v 0.6 2.7 -3.9
v 0.6 2.8 -3.9
v 4.4 2.7 -3.9
v 4.4 2.8 -3.9
v 0.4 1 -4
v 0.4 3.1 -4
v 0.6 1 -4
v 0.6 2.8 -4
v 4.4 1 -4
v 4.4 2.8 -4
v 4.6 1 -4
v 4.6 3.1 -4
v 0.4 1 -1
v 0.6 1 -1
v 4.4 1 -1
v 4.6 1 -1
v 0.4 1 -1.2
v 0.6 1 -1.2
v 4.4 1 -1.2
v 4.6 1 -1.2
v 0.4 1 -3.8
v 0.6 1 -3.8
v 4.4 1 -3.8
v 4.6 1 -3.8
v 0.4 1 -4
v 0.6 1 -4
v 4.4 1 -4
v 4.6 1 -4
v 0.6 2.7 -1.1
v 4.4 2.7 -1.1
v 0.4 2.7 -1.2
v 0.6 2.7 -1.2
v 4.4 2.7 -1.2
v 4.6 2.7 -1.2
v 0.4 2.7 -3.8
v 0.6 2.7 -3.8
v 4.4 2.7 -3.8
v 4.6 2.7 -3.8
v 0.6 2.7 -3.9
v 4.4 2.7 -3.9
v 0.6 2.8 -1
v 4.4 2.8 -1
v 0.6 2.8 -1.1
v 4.4 2.8 -1.1
v 0.6 2.8 -3.9
v 4.4 2.8 -3.9
v 0.6 2.8 -4
v 4.4 2.8 -4
v 1.7 3.6 -3.1
v 3.3 3.6 -3.1
v 1.7 3.6 -3.2
v 3.3 3.6 -3.2
v 1.8 3.7 -3.2
v 3.2 3.7 -3.2
v 1.8 3.7 -3.4
v 3.2 3.7 -3.4
v 0.4 3.1 -1
v 4.6 3.1 -1
v 1.6 3.1 -1.1
v 3.4 3.1 -1.1
v 1.4 3.1 -1.7
v 1.6 3.1 -1.7
v 1.5 3.1 -1.8
v 1.6 3.1 -1.8
v 1.6 3.1 -3.1
v 2 3.1 -3.1
v 2.1 3.1 -3.1
v 3.4 3.1 -3.1
v 1.5 3.1 -3.2
v 2 3.1 -3.2
v 1.4 3.1 -3.3
v 2.1 3.1 -3.3
v 0.4 3.1 -4
v 4.6 3.1 -4
v 1.4 3.2 -1.7
v 1.6 3.2 -1.7
v 1.5 3.2 -1.8
v 1.6 3.2 -1.8
v 2 3.2 -3.1
v 2.1 3.2 -3.1
v 1.5 3.2 -3.2
v 2 3.2 -3.2
v 1.4 3.2 -3.3
v 2.1 3.2 -3.3
v 1.6 3.3 -1.1
v 3.4 3.3 -1.1
v 1.7 3.3 -1.2
v 3.3 3.3 -1.2
v 1.7 3.3 -1.6
v 3.3 3.3 -1.6
v 1.7 3.3 -1.7
v 3.3 3.3 -1.7
v 1.7 3.3 -1.8
v 3.3 3.3 -1.8
v 1.6 3.3 -1.9
v 2.7 3.3 -1.9
v 3.2 3.3 -1.9
v 3.4 3.3 -1.9
v 1.8 4.8 -3.2
v 3.2 4.8 -3.2
v 1.8 4.8 -3.4
v 3.2 4.8 -3.4
v 1.7 4.9 -3.1
v 3.3 4.9 -3.1
v 1.7 4.9 -3.2
v 3.3 4.9 -3.2
v 1.6 5 -1.9
v 3.4 5 -1.9
v 1.6 5 -3.1
v 3.4 5 -3.1

# faces
f 5/3/1 2/3/1 1/3/1
f 6/3/1 4/3/1 3/3/1
f 7/3/1 5/3/1 1/3/1
f 7/3/1 6/3/1 5/3/1
f 8/3/1 4/3/1 6/3/1
f 8/3/1 6/3/1 7/3/1
f 11/1/1 10/1/1 9/1/1
f 12/1/1 10/1/1 11/1/1
f 17/1/1 14/1/1 13/1/1
f 18/1/1 16/1/1 15/1/1
f 19/1/1 17/1/1 13/1/1
f 19/1/1 18/1/1 17/1/1
f 20/1/1 16/1/1 18/1/1
f 20/1/1 18/1/1 19/1/1
f 21/1/1 16/1/1 20/1/1
f 22/1/1 16/1/1 21/1/1
f 25/1/1 24/1/1 23/1/1
f 26/1/1 24/1/1 25/1/1
f 29/1/1 28/1/1 27/1/1
f 30/1/1 28/1/1 29/1/1
f 33/1/1 32/1/1 31/1/1
f 34/1/1 32/1/1 33/1/1
f 39/3/1 36/3/1 35/3/1
f 40/3/1 36/3/1 39/3/1
f 41/3/1 38/3/1 37/3/1
f 42/3/1 38/3/1 41/3/1
f 43/3/1 39/3/1 35/3/1
f 44/3/1 39/3/1 43/3/1
f 45/3/1 38/3/1 42/3/1
f 46/3/1 38/3/1 45/3/1
f 47/3/2 48/3/2 51/3/2
f 51/3/2 48/3/2 52/3/2
f 49/3/2 50/3/2 53/3/2
f 53/3/2 50/3/2 54/3/2
f 47/3/2 51/3/2 55/3/2
f 55/3/2 51/3/2 56/3/2
f 54/3/2 50/3/2 57/3/2
f 57/3/2 50/3/2 58/3/2
f 59/1/2 60/1/2 61/1/2
f 61/1/2 60/1/2 62/1/2
f 63/1/2 64/1/2 65/1/2
f 65/1/2 64/1/2 66/1/2
f 67/1/2 68/1/2 69/1/2
f 69/1/2 68/1/2 70/1/2
f 71/1/2 72/1/2 73/1/2
f 73/1/2 72/1/2 74/1/2
f 75/1/2 76/1/2 77/1/2
f 77/1/2 76/1/2 78/1/2
f 78/1/2 76/1/2 79/1/2
f 79/1/2 76/1/2 80/1/2
f 81/3/2 82/3/2 85/3/2
f 83/3/2 84/3/2 86/3/2
f 81/3/2 85/3/2 87/3/2
f 85/3/2 86/3/2 87/3/2
f 86/3/2 84/3/2 88/3/2
f 87/3/2 86/3/2 88/3/2
f 91/3/3 90/3/3 89/3/3
f 92/3/3 90/3/3 91/3/3
f 94/3/3 90/3/3 92/3/3
f 95/3/3 94/3/3 93/3/3
f 96/3/3 90/3/3 94/3/3
f 96/3/3 94/3/3 95/3/3
f 101/1/3 100/1/3 99/1/3
f 102/1/3 100/1/3 101/1/3
f 103/3/3 98/3/3 97/3/3
f 104/3/3 98/3/3 103/3/3
f 107/1/3 106/1/3 105/1/3
f 108/1/3 106/1/3 107/1/3
f 111/1/3 110/1/3 109/1/3
f 112/1/3 110/1/3 111/1/3
f 113/1/3 111/1/3 109/1/3
f 114/1/3 111/1/3 113/1/3
f 115/1/3 111/1/3 114/1/3
f 116/1/3 111/1/3 115/1/3
f 117/3/3 114/3/3 113/3/3
f 118/2/3 115/2/3 114/2/3
f 118/3/3 114/3/3 117/3/3
f 119/3/3 116/3/3 115/3/3
f 119/2/3 115/2/3 118/2/3
f 120/1/3 111/1/3 116/1/3
f 120/3/3 116/3/3 119/3/3
f 121/3/3 112/3/3 111/3/3
f 121/1/3 111/1/3 120/1/3
f 121/1/3 120/1/3 119/1/3
f 121/1/3 118/1/3 117/1/3
f 121/1/3 119/1/3 118/1/3
f 122/1/3 110/1/3 112/1/3
f 122/3/3 112/3/3 121/3/3
f 123/1/3 121/1/3 117/1/3
f 123/1/3 122/1/3 121/1/3
f 124/1/3 110/1/3 122/1/3
f 124/1/3 122/1/3 123/1/3
f 127/1/3 126/1/3 125/1/3
f 128/1/3 126/1/3 127/1/3
f 131/3/3 130/3/3 129/3/3
f 132/3/3 130/3/3 131/3/3
f 135/3/3 134/3/3 133/3/3
f 136/3/3 134/3/3 135/3/3
f 137/3/4 138/3/4 139/3/4
f 139/3/4 138/3/4 140/3/4
f 141/3/4 142/3/4 143/3/4
f 143/3/4 142/3/4 144/3/4
f 145/1/4 146/1/4 147/1/4
f 147/1/4 146/1/4 148/1/4
f 149/1/4 150/1/4 151/1/4
f 151/1/4 150/1/4 152/1/4
f 149/1/4 151/1/4 153/1/4
f 153/1/4 151/1/4 154/1/4
f 154/1/4 151/1/4 156/1/4
f 156/1/4 151/1/4 157/1/4
f 155/1/4 156/1/4 157/1/4
f 152/1/4 150/1/4 158/1/4
f 155/1/4 157/1/4 159/1/4
f 157/1/4 158/1/4 159/1/4
f 158/1/4 150/1/4 160/1/4
f 159/1/4 158/1/4 160/1/4
f 161/1/4 162/1/4 163/1/4
f 163/1/4 162/1/4 164/1/4
f 161/1/4 163/1/4 165/1/4
f 164/1/4 162/1/4 166/1/4
f 161/1/4 165/1/4 167/1/4
f 165/1/4 166/1/4 167/1/4
f 166/1/4 162/1/4 168/1/4
f 167/1/4 166/1/4 168/1/4
f 169/1/4 170/1/4 171/1/4
f 171/1/4 170/1/4 172/1/4
f 173/1/4 174/1/4 175/1/4
f 175/1/4 174/1/4 176/1/4
f 177/3/4 178/3/4 179/3/4
f 179/3/4 178/3/4 180/3/4
f 181/3/4 182/3/4 183/3/4
f 183/3/4 182/3/4 184/3/4
f 184/3/4 182/3/4 186/3/4
f 185/3/4 186/3/4 187/3/4
f 186/3/4 182/3/4 188/3/4
f 187/3/4 186/3/4 188/3/4
f 193/3/5 190/3/5 189/3/5
f 194/3/5 190/3/5 193/3/5
f 195/3/5 192/3/5 191/3/5
f 196/3/5 192/3/5 195/3/5
f 201/3/5 198/3/5 197/3/5
f 202/3/5 198/3/5 201/3/5
f 203/3/5 200/3/5 199/3/5
f 204/3/5 200/3/5 203/3/5
f 208/3/5 206/3/5 205/3/5
f 209/3/5 206/3/5 208/3/5
f 211/3/5 208/3/5 207/3/5
f 211/3/5 210/3/5 209/3/5
f 211/3/5 209/3/5 208/3/5
f 212/3/5 210/3/5 211/3/5
f 213/3/5 210/3/5 212/3/5
f 214/3/5 210/3/5 213/3/5
f 215/3/5 213/3/5 212/3/5
f 216/3/5 213/3/5 215/3/5
f 219/3/5 218/3/5 217/3/5
f 220/3/5 218/3/5 219/3/5
f 223/3/5 222/3/5 221/3/5
f 224/3/5 222/3/5 223/3/5
f 227/1/5 226/1/5 225/1/5
f 228/1/5 226/1/5 227/1/5
f 231/1/5 230/1/5 229/1/5
f 232/1/5 230/1/5 231/1/5
f 233/3/6 234/3/6 235/3/6
f 235/3/6 234/3/6 236/3/6
f 233/3/6 235/3/6 237/3/6
f 237/3/6 235/3/6 238/3/6
f 239/3/6 240/3/6 241/3/6
f 236/3/6 234/3/6 244/3/6
f 241/3/6 242/3/6 245/3/6
f 239/3/6 241/3/6 245/3/6
f 245/3/6 242/3/6 246/3/6
f 233/3/6 237/3/6 247/3/6
f 243/3/6 244/3/6 248/3/6
f 233/3/6 247/3/6 249/3/6
f 247/3/6 248/3/6 249/3/6
f 248/3/6 244/3/6 250/3/6
f 249/3/6 248/3/6 250/3/6
f 244/3/6 234/3/6 250/3/6
f 251/1/6 252/1/6 253/1/6
f 253/1/6 252/1/6 254/1/6
f 251/1/6 253/1/6 257/1/6
f 255/1/6 256/1/6 258/1/6
f 251/1/6 257/1/6 259/1/6
f 257/1/6 258/1/6 259/1/6
f 258/1/6 256/1/6 260/1/6
f 259/1/6 258/1/6 260/1/6
f 261/1/6 262/1/6 263/1/6
f 263/1/6 262/1/6 264/1/6
f 261/1/6 263/1/6 265/1/6
f 263/3/6 264/3/6 265/3/6
f 264/1/6 262/1/6 266/1/6
f 265/3/6 264/3/6 266/3/6
f 261/1/6 265/1/6 267/1/6
f 265/1/6 266/1/6 267/1/6
f 266/1/6 262/1/6 268/1/6
f 267/1/6 266/1/6 268/1/6
f 261/1/6 267/1/6 269/1/6
f 267/3/6 268/3/6 269/3/6
f 268/1/6 262/1/6 270/1/6
f 269/3/6 268/3/6 270/3/6
f 261/1/6 269/1/6 271/1/6
f 269/1/6 270/1/6 271/1/6
f 271/1/6 270/1/6 272/1/6
f 272/1/6 270/1/6 273/1/6
f 270/1/6 262/1/6 274/1/6
f 273/1/6 270/1/6 274/1/6
f 275/1/6 276/1/6 277/1/6
f 277/1/6 276/1/6 278/1/6
f 279/1/6 280/1/6 281/1/6
f 281/1/6 280/1/6 282/1/6
f 283/1/6 284/1/6 285/1/6
f 285/1/6 284/1/6 286/1/6
