# MagicaVoxel @ Ephtracy

# group
o 

# material
mtllib desk.mtl
usemtl palette

# normals
vn -1 0 0
vn 1 0 0
vn 0 0 1
vn 0 0 -1
vn 0 -1 0
vn 0 1 0

# texcoords
vt 0.958984 0.5
vt 0.982422 0.5
vt 0.990234 0.5
vt 0.994141 0.5

# verts
v 0.4 1 -1
v 0.4 1 -1.2
v 0.4 1 -3.8
v 0.4 1 -4
v 0.4 2.7 -1.2
v 0.4 2.7 -3.8
v 0.4 3.1 -1
v 0.4 3.1 -4
v 0.5 3.1 -1.3
v 0.5 3.1 -1.4
v 0.5 3.1 -2.1
v 0.5 3.1 -2.2
v 0.5 3.3 -1.4
v 0.5 3.3 -2.1
v 0.5 3.5 -1.3
v 0.5 3.5 -2.2
v 1 3.4 -1.3
v 1 3.4 -2.2
v 1 3.5 -1.3
v 1 3.5 -2.2
v 1.1 3.1 -1.3
v 1.1 3.1 -1.4
v 1.1 3.1 -2.1
v 1.1 3.1 -2.2
v 1.1 3.3 -1.3
v 1.1 3.3 -1.4
v 1.1 3.3 -2.1
v 1.1 3.3 -2.2
v 1.4 3.1 -1.7
v 1.4 3.1 -3.3
v 1.4 3.2 -1.7
v 1.4 3.2 -3.3
v 1.6 3.1 -1.1
v 1.6 3.1 -1.7
v 1.6 3.1 -1.8
v 1.6 3.1 -3.1
v 1.6 3.2 -1.7
v 1.6 3.2 -1.8
v 1.6 3.3 -1.1
v 1.6 3.3 -1.9
v 1.6 5 -1.9
v 1.6 5 -3.1
v 1.7 3.6 -3.1
v 1.7 3.6 -3.2
v 1.7 4.9 -3.1
v 1.7 4.9 -3.2
v 1.8 3.7 -3.2
v 1.8 3.7 -3.4
v 1.8 4.8 -3.2
v 1.8 4.8 -3.4
v 2 3.1 -3.1
v 2 3.1 -3.2
v 2 3.2 -3.1
v 2 3.2 -3.2
v 4.4 1 -1
v 4.4 1 -1.2
v 4.4 1 -3.8
v 4.4 1 -4
v 4.4 2.7 -1.1
v 4.4 2.7 -1.2
v 4.4 2.7 -3.8
v 4.4 2.7 -3.9
v 4.4 2.8 -1
v 4.4 2.8 -1.1
v 4.4 2.8 -3.9
v 4.4 2.8 -4
v 0.6 1 -1
v 0.6 1 -1.2
v 0.6 1 -3.8
v 0.6 1 -4
v 0.6 2.7 -1.1
v 0.6 2.7 -1.2
v 0.6 2.7 -3.8
v 0.6 2.7 -3.9
v 0.6 2.8 -1
v 0.6 2.8 -1.1
v 0.6 2.8 -3.9
v 0.6 2.8 -4
v 0.6 3.1 -1.3
v 0.6 3.1 -1.4
v 0.6 3.1 -2.1
v 0.6 3.1 -2.2
v 0.6 3.3 -1.3
v 0.6 3.3 -1.4
v 0.6 3.3 -2.1
v 0.6 3.3 -2.2
v 0.9 3.4 -1.3
v 0.9 3.4 -2.2
v 0.9 3.5 -1.3
v 0.9 3.5 -2.2
v 1.2 3.1 -1.3
v 1.2 3.1 -1.4
v 1.2 3.1 -2.1
v 1.2 3.1 -2.2
v 1.2 3.3 -1.4
v 1.2 3.3 -2.1
v 1.2 3.5 -1.3
v 1.2 3.5 -2.2
v 1.5 3.1 -1.8
v 1.5 3.1 -3.2
v 1.5 3.2 -1.8
v 1.5 3.2 -3.2
v 2.1 3.1 -3.1
v 2.1 3.1 -3.3
v 2.1 3.2 -3.1
v 2.1 3.2 -3.3
v 3.2 3.7 -3.2
v 3.2 3.7 -3.4
v 3.2 4.8 -3.2
v 3.2 4.8 -3.4
v 3.3 3.6 -3.1
v 3.3 3.6 -3.2
v 3.3 4.9 -3.1
v 3.3 4.9 -3.2
v 3.4 3.1 -1.1
v 3.4 3.1 -3.1
v 3.4 3.3 -1.1
v 3.4 3.3 -1.9
v 3.4 5 -1.9
v 3.4 5 -3.1
v 4.6 1 -1
v 4.6 1 -1.2
v 4.6 1 -3.8
v 4.6 1 -4
v 4.6 2.7 -1.2
v 4.6 2.7 -3.8
v 4.6 3.1 -1
v 4.6 3.1 -4
v 0.4 1 -1
v 0.4 3.1 -1
v 0.6 1 -1
v 0.6 2.8 -1
v 4.4 1 -1
v 4.4 2.8 -1
v 4.6 1 -1
v 4.6 3.1 -1
v 0.6 2.7 -1.1
v 0.6 2.8 -1.1
v 1.6 3.1 -1.1
v 1.6 3.3 -1.1
v 3.4 3.1 -1.1
v 3.4 3.3 -1.1
v 4.4 2.7 -1.1
v 4.4 2.8 -1.1
v 0.5 3.1 -1.3
v 0.5 3.5 -1.3
v 0.6 3.1 -1.3
v 0.6 3.3 -1.3
v 0.9 3.4 -1.3
v 0.9 3.5 -1.3
v 1 3.4 -1.3
v 1 3.5 -1.3
v 1.1 3.1 -1.3
v 1.1 3.3 -1.3
v 1.2 3.1 -1.3
v 1.2 3.5 -1.3
v 1.4 3.1 -1.7
v 1.4 3.2 -1.7
v 1.6 3.1 -1.7
v 1.6 3.2 -1.7
v 1.6 3.3 -1.9
v 1.6 5 -1.9
v 1.7 3.7 -1.9
v 1.7 4.9 -1.9
v 2.7 3.3 -1.9
v 2.7 3.4 -1.9
v 2.7 3.5 -1.9
v 2.7 3.6 -1.9
v 3.2 3.3 -1.9
v 3.2 3.4 -1.9
v 3.2 3.5 -1.9
v 3.2 3.6 -1.9
v 3.3 3.7 -1.9
v 3.3 4.9 -1.9
v 3.4 3.3 -1.9
v 3.4 5 -1.9
v 0.5 3.1 -2.1
v 0.5 3.3 -2.1
v 0.6 3.1 -2.1
v 0.6 3.3 -2.1
v 1.1 3.1 -2.1
v 1.1 3.3 -2.1
v 1.2 3.1 -2.1
v 1.2 3.3 -2.1
v 1.5 3.1 -3.2
v 1.5 3.2 -3.2
v 2 3.1 -3.2
v 2 3.2 -3.2
v 0.4 1 -3.8
v 0.4 2.7 -3.8
v 0.6 1 -3.8
v 0.6 2.7 -3.8
v 4.4 1 -3.8
v 4.4 2.7 -3.8
v 4.6 1 -3.8
v 4.6 2.7 -3.8
v 0.4 1 -1.2
v 0.4 2.7 -1.2
v 0.6 1 -1.2
v 0.6 2.7 -1.2
v 4.4 1 -1.2
v 4.4 2.7 -1.2
v 4.6 1 -1.2
v 4.6 2.7 -1.2
v 0.5 3.1 -1.4
v 0.5 3.3 -1.4
v 0.6 3.1 -1.4
v 0.6 3.3 -1.4
v 1.1 3.1 -1.4
v 1.1 3.3 -1.4
v 1.2 3.1 -1.4
v 1.2 3.3 -1.4
v 1.5 3.1 -1.8
v 1.5 3.2 -1.8
v 1.6 3.1 -1.8
v 1.6 3.2 -1.8
v 0.5 3.1 -2.2
v 0.5 3.5 -2.2
v 0.6 3.1 -2.2
v 0.6 3.3 -2.2
v 0.9 3.4 -2.2
v 0.9 3.5 -2.2
v 1 3.4 -2.2
v 1 3.5 -2.2
v 1.1 3.1 -2.2
v 1.1 3.3 -2.2
v 1.2 3.1 -2.2
v 1.2 3.5 -2.2
v 1.6 3.1 -3.1
v 1.6 5 -3.1
v 1.7 3.6 -3.1
v 1.7 4.9 -3.1
v 2 3.1 -3.1
v 2 3.2 -3.1
v 2.1 3.1 -3.1
v 2.1 3.2 -3.1
v 3.3 3.6 -3.1
v 3.3 4.9 -3.1
v 3.4 3.1 -3.1
v 3.4 5 -3.1
v 1.7 3.6 -3.2
v 1.7 4.9 -3.2
v 1.8 3.7 -3.2
v 1.8 4.8 -3.2
v 3.2 3.7 -3.2
v 3.2 4.8 -3.2
v 3.3 3.6 -3.2
v 3.3 4.9 -3.2
v 1.4 3.1 -3.3
v 1.4 3.2 -3.3
v 2.1 3.1 -3.3
v 2.1 3.2 -3.3
v 1.8 3.7 -3.4
v 1.8 4.8 -3.4
v 3.2 3.7 -3.4
v 3.2 4.8 -3.4
v 0.6 2.7 -3.9
v 0.6 2.8 -3.9
v 4.4 2.7 -3.9
v 4.4 2.8 -3.9
v 0.4 1 -4
v 0.4 3.1 -4
v 0.6 1 -4
v 0.6 2.8 -4
v 4.4 1 -4
v 4.4 2.8 -4
v 4.6 1 -4
v 4.6 3.1 -4
v 0.4 1 -1
v 0.6 1 -1
v 4.4 1 -1
v 4.6 1 -1
v 0.4 1 -1.2
v 0.6 1 -1.2
v 4.4 1 -1.2
v 4.6 1 -1.2
v 0.4 1 -3.8
v 0.6 1 -3.8
v 4.4 1 -3.8
v 4.6 1 -3.8
v 0.4 1 -4
v 0.6 1 -4
v 4.4 1 -4
v 4.6 1 -4
v 0.6 2.7 -1.1
v 4.4 2.7 -1.1
v 0.4 2.7 -1.2
v 0.6 2.7 -1.2
v 4.4 2.7 -1.2
v 4.6 2.7 -1.2
v 0.4 2.7 -3.8
v 0.6 2.7 -3.8
v 4.4 2.7 -3.8
v 4.6 2.7 -3.8
v 0.6 2.7 -3.9
v 4.4 2.7 -3.9
v 0.6 2.8 -1
v 4.4 2.8 -1
v 0.6 2.8 -1.1
v 4.4 2.8 -1.1
v 0.6 2.8 -3.9
v 4.4 2.8 -3.9
v 0.6 2.8 -4
v 4.4 2.8 -4
v 0.6 3.3 -1.3
v 1.1 3.3 -1.3
v 0.5 3.3 -1.4
v 0.6 3.3 -1.4
v 1.1 3.3 -1.4
v 1.2 3.3 -1.4
v 0.5 3.3 -2.1
v 0.6 3.3 -2.1
v 1.1 3.3 -2.1
v 1.2 3.3 -2.1
v 0.6 3.3 -2.2
v 1.1 3.3 -2.2
v 1.7 3.6 -3.1
v 3.3 3.6 -3.1
v 1.7 3.6 -3.2
v 3.3 3.6 -3.2
v 1.8 3.7 -3.2
v 3.2 3.7 -3.2
v 1.8 3.7 -3.4
v 3.2 3.7 -3.4
v 0.4 3.1 -1
v 4.6 3.1 -1
v 1.6 3.1 -1.1
v 3.4 3.1 -1.1
v 0.5 3.1 -1.3
v 0.6 3.1 -1.3
v 1.1 3.1 -1.3
v 1.2 3.1 -1.3
v 0.5 3.1 -1.4
v 0.6 3.1 -1.4
v 1.1 3.1 -1.4
v 1.2 3.1 -1.4
v 1.4 3.1 -1.7
v 1.6 3.1 -1.7
v 1.5 3.1 -1.8
v 1.6 3.1 -1.8
v 0.5 3.1 -2.1
v 0.6 3.1 -2.1
v 1.1 3.1 -2.1
v 1.2 3.1 -2.1
v 0.5 3.1 -2.2
v 0.6 3.1 -2.2
v 1.1 3.1 -2.2
v 1.2 3.1 -2.2
v 1.6 3.1 -3.1
v 2 3.1 -3.1
v 2.1 3.1 -3.1
v 3.4 3.1 -3.1
v 1.5 3.1 -3.2
v 2 3.1 -3.2
v 1.4 3.1 -3.3
v 2.1 3.1 -3.3
v 0.4 3.1 -4
v 4.6 3.1 -4
v 1.4 3.2 -1.7
v 1.6 3.2 -1.7
v 1.5 3.2 -1.8
v 1.6 3.2 -1.8
v 2 3.2 -3.1
v 2.1 3.2 -3.1
v 1.5 3.2 -3.2
v 2 3.2 -3.2
v 1.4 3.2 -3.3
v 2.1 3.2 -3.3
v 1.6 3.3 -1.1
v 3.4 3.3 -1.1
v 1.7 3.3 -1.2
v 3.3 3.3 -1.2
v 1.7 3.3 -1.6
v 3.3 3.3 -1.6
v 1.7 3.3 -1.7
v 3.3 3.3 -1.7
v 1.7 3.3 -1.8
v 3.3 3.3 -1.8
v 1.6 3.3 -1.9
v 2.7 3.3 -1.9
v 3.2 3.3 -1.9
v 3.4 3.3 -1.9
v 0.9 3.4 -1.3
v 1 3.4 -1.3
v 0.9 3.4 -2.2
v 1 3.4 -2.2
v 0.5 3.5 -1.3
v 0.9 3.5 -1.3
v 1 3.5 -1.3
v 1.2 3.5 -1.3
v 0.6 3.5 -1.4
v 0.8 3.5 -1.4
v 0.6 3.5 -2.1
v 0.8 3.5 -2.1
v 0.5 3.5 -2.2
v 0.9 3.5 -2.2
v 1 3.5 -2.2
v 1.2 3.5 -2.2
v 1.8 4.8 -3.2
v 3.2 4.8 -3.2
v 1.8 4.8 -3.4
v 3.2 4.8 -3.4
v 1.7 4.9 -3.1
v 3.3 4.9 -3.1
v 1.7 4.9 -3.2
v 3.3 4.9 -3.2
v 1.6 5 -1.9
v 3.4 5 -1.9
v 1.6 5 -3.1
v 3.4 5 -3.1

# faces
f 5/4/1 2/4/1 1/4/1
f 6/4/1 4/4/1 3/4/1
f 7/4/1 5/4/1 1/4/1
f 7/4/1 6/4/1 5/4/1
f 8/4/1 4/4/1 6/4/1
f 8/4/1 6/4/1 7/4/1
f 13/4/1 10/4/1 9/4/1
f 14/4/1 12/4/1 11/4/1
f 15/4/1 13/4/1 9/4/1
f 15/4/1 14/4/1 13/4/1
f 16/4/1 12/4/1 14/4/1
f 16/4/1 14/4/1 15/4/1
f 19/4/1 18/4/1 17/4/1
f 20/4/1 18/4/1 19/4/1
f 25/4/1 22/4/1 21/4/1
f 26/4/1 22/4/1 25/4/1
f 27/4/1 24/4/1 23/4/1
f 28/4/1 24/4/1 27/4/1
f 31/1/1 30/1/1 29/1/1
f 32/1/1 30/1/1 31/1/1
f 37/1/1 34/1/1 33/1/1
f 38/1/1 36/1/1 35/1/1
f 39/1/1 37/1/1 33/1/1
f 39/1/1 38/1/1 37/1/1
f 40/1/1 36/1/1 38/1/1
f 40/1/1 38/1/1 39/1/1
f 41/1/1 36/1/1 40/1/1
f 42/1/1 36/1/1 41/1/1
f 45/1/1 44/1/1 43/1/1
f 46/1/1 44/1/1 45/1/1
f 49/1/1 48/1/1 47/1/1
f 50/1/1 48/1/1 49/1/1
f 53/1/1 52/1/1 51/1/1
f 54/1/1 52/1/1 53/1/1
f 59/4/1 56/4/1 55/4/1
f 60/4/1 56/4/1 59/4/1
f 61/4/1 58/4/1 57/4/1
f 62/4/1 58/4/1 61/4/1
f 63/4/1 59/4/1 55/4/1
f 64/4/1 59/4/1 63/4/1
f 65/4/1 58/4/1 62/4/1
f 66/4/1 58/4/1 65/4/1
f 67/4/2 68/4/2 71/4/2
f 71/4/2 68/4/2 72/4/2
f 69/4/2 70/4/2 73/4/2
f 73/4/2 70/4/2 74/4/2
f 67/4/2 71/4/2 75/4/2
f 75/4/2 71/4/2 76/4/2
f 74/4/2 70/4/2 77/4/2
f 77/4/2 70/4/2 78/4/2
f 79/4/2 80/4/2 83/4/2
f 83/4/2 80/4/2 84/4/2
f 81/4/2 82/4/2 85/4/2
f 85/4/2 82/4/2 86/4/2
f 87/4/2 88/4/2 89/4/2
f 89/4/2 88/4/2 90/4/2
f 91/4/2 92/4/2 95/4/2
f 93/4/2 94/4/2 96/4/2
f 91/4/2 95/4/2 97/4/2
f 95/4/2 96/4/2 97/4/2
f 96/4/2 94/4/2 98/4/2
f 97/4/2 96/4/2 98/4/2
f 99/1/2 100/1/2 101/1/2
f 101/1/2 100/1/2 102/1/2
f 103/1/2 104/1/2 105/1/2
f 105/1/2 104/1/2 106/1/2
f 107/1/2 108/1/2 109/1/2
f 109/1/2 108/1/2 110/1/2
f 111/1/2 112/1/2 113/1/2
f 113/1/2 112/1/2 114/1/2
f 115/1/2 116/1/2 117/1/2
f 117/1/2 116/1/2 118/1/2
f 118/1/2 116/1/2 119/1/2
f 119/1/2 116/1/2 120/1/2
f 121/4/2 122/4/2 125/4/2
f 123/4/2 124/4/2 126/4/2
f 121/4/2 125/4/2 127/4/2
f 125/4/2 126/4/2 127/4/2
f 126/4/2 124/4/2 128/4/2
f 127/4/2 126/4/2 128/4/2
f 131/4/3 130/4/3 129/4/3
f 132/4/3 130/4/3 131/4/3
f 134/4/3 130/4/3 132/4/3
f 135/4/3 134/4/3 133/4/3
f 136/4/3 130/4/3 134/4/3
f 136/4/3 134/4/3 135/4/3
f 141/1/3 140/1/3 139/1/3
f 142/1/3 140/1/3 141/1/3
f 143/4/3 138/4/3 137/4/3
f 144/4/3 138/4/3 143/4/3
f 147/4/3 146/4/3 145/4/3
f 148/4/3 146/4/3 147/4/3
f 149/4/3 146/4/3 148/4/3
f 150/4/3 146/4/3 149/4/3
f 151/4/3 149/4/3 148/4/3
f 154/4/3 151/4/3 148/4/3
f 154/4/3 152/4/3 151/4/3
f 155/4/3 154/4/3 153/4/3
f 156/4/3 152/4/3 154/4/3
f 156/4/3 154/4/3 155/4/3
f 159/1/3 158/1/3 157/1/3
f 160/1/3 158/1/3 159/1/3
f 163/1/3 162/1/3 161/1/3
f 164/1/3 162/1/3 163/1/3
f 165/1/3 163/1/3 161/1/3
f 166/1/3 163/1/3 165/1/3
f 167/1/3 163/1/3 166/1/3
f 168/1/3 163/1/3 167/1/3
f 169/4/3 166/4/3 165/4/3
f 170/3/3 167/3/3 166/3/3
f 170/4/3 166/4/3 169/4/3
f 171/4/3 168/4/3 167/4/3
f 171/3/3 167/3/3 170/3/3
f 172/1/3 163/1/3 168/1/3
f 172/4/3 168/4/3 171/4/3
f 173/4/3 164/4/3 163/4/3
f 173/1/3 163/1/3 172/1/3
f 173/1/3 172/1/3 171/1/3
f 173/1/3 170/1/3 169/1/3
f 173/1/3 171/1/3 170/1/3
f 174/1/3 162/1/3 164/1/3
f 174/4/3 164/4/3 173/4/3
f 175/1/3 173/1/3 169/1/3
f 175/1/3 174/1/3 173/1/3
f 176/1/3 162/1/3 174/1/3
f 176/1/3 174/1/3 175/1/3
f 179/4/3 178/4/3 177/4/3
f 180/4/3 178/4/3 179/4/3
f 183/4/3 182/4/3 181/4/3
f 184/4/3 182/4/3 183/4/3
f 187/1/3 186/1/3 185/1/3
f 188/1/3 186/1/3 187/1/3
f 191/4/3 190/4/3 189/4/3
f 192/4/3 190/4/3 191/4/3
f 195/4/3 194/4/3 193/4/3
f 196/4/3 194/4/3 195/4/3
f 197/4/4 198/4/4 199/4/4
f 199/4/4 198/4/4 200/4/4
f 201/4/4 202/4/4 203/4/4
f 203/4/4 202/4/4 204/4/4
f 205/4/4 206/4/4 207/4/4
f 207/4/4 206/4/4 208/4/4
f 209/4/4 210/4/4 211/4/4
f 211/4/4 210/4/4 212/4/4
f 213/1/4 214/1/4 215/1/4
f 215/1/4 214/1/4 216/1/4
f 217/4/4 218/4/4 219/4/4
f 219/4/4 218/4/4 220/4/4
f 220/4/4 218/4/4 221/4/4
f 221/4/4 218/4/4 222/4/4
f 220/4/4 221/4/4 223/4/4
f 220/4/4 223/4/4 226/4/4
f 223/4/4 224/4/4 226/4/4
f 225/4/4 226/4/4 227/4/4
f 226/4/4 224/4/4 228/4/4
f 227/4/4 226/4/4 228/4/4
f 229/1/4 230/1/4 231/1/4
f 231/1/4 230/1/4 232/1/4
f 229/1/4 231/1/4 233/1/4
f 233/1/4 231/1/4 234/1/4
f 234/1/4 231/1/4 236/1/4
f 236/1/4 231/1/4 237/1/4
f 235/1/4 236/1/4 237/1/4
f 232/1/4 230/1/4 238/1/4
f 235/1/4 237/1/4 239/1/4
f 237/1/4 238/1/4 239/1/4
f 238/1/4 230/1/4 240/1/4
f 239/1/4 238/1/4 240/1/4
f 241/1/4 242/1/4 243/1/4
f 243/1/4 242/1/4 244/1/4
f 241/1/4 243/1/4 245/1/4
f 244/1/4 242/1/4 246/1/4
f 241/1/4 245/1/4 247/1/4
f 245/1/4 246/1/4 247/1/4
f 246/1/4 242/1/4 248/1/4
f 247/1/4 246/1/4 248/1/4
f 249/1/4 250/1/4 251/1/4
f 251/1/4 250/1/4 252/1/4
f 253/1/4 254/1/4 255/1/4
f 255/1/4 254/1/4 256/1/4
f 257/4/4 258/4/4 259/4/4
f 259/4/4 258/4/4 260/4/4
f 261/4/4 262/4/4 263/4/4
f 263/4/4 262/4/4 264/4/4
f 264/4/4 262/4/4 266/4/4
f 265/4/4 266/4/4 267/4/4
f 266/4/4 262/4/4 268/4/4
f 267/4/4 266/4/4 268/4/4
f 273/4/5 270/4/5 269/4/5
f 274/4/5 270/4/5 273/4/5
f 275/4/5 272/4/5 271/4/5
f 276/4/5 272/4/5 275/4/5
f 281/4/5 278/4/5 277/4/5
f 282/4/5 278/4/5 281/4/5
f 283/4/5 280/4/5 279/4/5
f 284/4/5 280/4/5 283/4/5
f 288/4/5 286/4/5 285/4/5
f 289/4/5 286/4/5 288/4/5
f 291/4/5 288/4/5 287/4/5
f 291/4/5 290/4/5 289/4/5
f 291/4/5 289/4/5 288/4/5
f 292/4/5 290/4/5 291/4/5
f 293/4/5 290/4/5 292/4/5
f 294/4/5 290/4/5 293/4/5
f 295/4/5 293/4/5 292/4/5
f 296/4/5 293/4/5 295/4/5
f 299/4/5 298/4/5 297/4/5
f 300/4/5 298/4/5 299/4/5
f 303/4/5 302/4/5 301/4/5
f 304/4/5 302/4/5 303/4/5
f 308/4/5 306/4/5 305/4/5
f 309/4/5 306/4/5 308/4/5
f 311/4/5 308/4/5 307/4/5
f 311/4/5 310/4/5 309/4/5
f 311/4/5 309/4/5 308/4/5
f 312/4/5 310/4/5 311/4/5
f 313/4/5 310/4/5 312/4/5
f 314/4/5 310/4/5 313/4/5
f 315/4/5 313/4/5 312/4/5
f 316/4/5 313/4/5 315/4/5
f 319/1/5 318/1/5 317/1/5
f 320/1/5 318/1/5 319/1/5
f 323/1/5 322/1/5 321/1/5
f 324/1/5 322/1/5 323/1/5
f 325/4/6 326/4/6 327/4/6
f 327/4/6 326/4/6 328/4/6
f 325/4/6 327/4/6 329/4/6
f 329/4/6 327/4/6 330/4/6
f 330/4/6 327/4/6 331/4/6
f 331/4/6 327/4/6 332/4/6
f 325/4/6 329/4/6 333/4/6
f 330/4/6 331/4/6 334/4/6
f 334/4/6 331/4/6 335/4/6
f 332/4/6 327/4/6 336/4/6
f 334/4/6 335/4/6 337/4/6
f 335/4/6 336/4/6 337/4/6
f 336/4/6 327/4/6 337/4/6
f 333/4/6 334/4/6 337/4/6
f 337/4/6 327/4/6 338/4/6
f 325/4/6 333/4/6 341/4/6
f 333/4/6 337/4/6 341/4/6
f 341/4/6 337/4/6 342/4/6
f 342/4/6 337/4/6 343/4/6
f 343/4/6 337/4/6 344/4/6
f 325/4/6 341/4/6 345/4/6
f 342/4/6 343/4/6 346/4/6
f 346/4/6 343/4/6 347/4/6
f 344/4/6 337/4/6 348/4/6
f 339/4/6 340/4/6 349/4/6
f 328/4/6 326/4/6 352/4/6
f 349/4/6 350/4/6 353/4/6
f 339/4/6 349/4/6 353/4/6
f 353/4/6 350/4/6 354/4/6
f 347/4/6 348/4/6 355/4/6
f 346/4/6 347/4/6 355/4/6
f 345/4/6 346/4/6 355/4/6
f 348/4/6 337/4/6 355/4/6
f 351/4/6 352/4/6 356/4/6
f 345/4/6 355/4/6 357/4/6
f 355/4/6 356/4/6 357/4/6
f 325/4/6 345/4/6 357/4/6
f 356/4/6 352/4/6 358/4/6
f 357/4/6 356/4/6 358/4/6
f 352/4/6 326/4/6 358/4/6
f 359/1/6 360/1/6 361/1/6
f 361/1/6 360/1/6 362/1/6
f 359/1/6 361/1/6 365/1/6
f 363/1/6 364/1/6 366/1/6
f 359/1/6 365/1/6 367/1/6
f 365/1/6 366/1/6 367/1/6
f 366/1/6 364/1/6 368/1/6
f 367/1/6 366/1/6 368/1/6
f 369/1/6 370/1/6 371/1/6
f 371/1/6 370/1/6 372/1/6
f 369/1/6 371/1/6 373/1/6
f 371/4/6 372/4/6 373/4/6
f 372/1/6 370/1/6 374/1/6
f 373/4/6 372/4/6 374/4/6
f 369/1/6 373/1/6 375/1/6
f 373/1/6 374/1/6 375/1/6
f 374/1/6 370/1/6 376/1/6
f 375/1/6 374/1/6 376/1/6
f 369/1/6 375/1/6 377/1/6
f 375/4/6 376/4/6 377/4/6
f 376/1/6 370/1/6 378/1/6
f 377/4/6 376/4/6 378/4/6
f 369/1/6 377/1/6 379/1/6
f 377/1/6 378/1/6 379/1/6
f 379/1/6 378/1/6 380/1/6
f 380/1/6 378/1/6 381/1/6
f 378/1/6 370/1/6 382/1/6
f 381/1/6 378/1/6 382/1/6
f 383/4/6 384/4/6 385/4/6
f 385/4/6 384/4/6 386/4/6
f 387/4/6 388/4/6 391/4/6
f 391/4/6 388/4/6 392/4/6
f 387/4/6 391/4/6 393/4/6
f 391/2/6 392/2/6 393/2/6
f 392/4/6 388/4/6 394/4/6
f 393/2/6 392/2/6 394/2/6
f 387/4/6 393/4/6 395/4/6
f 393/4/6 394/4/6 395/4/6
f 394/4/6 388/4/6 396/4/6
f 395/4/6 394/4/6 396/4/6
f 389/4/6 390/4/6 397/4/6
f 397/4/6 390/4/6 398/4/6
f 399/1/6 400/1/6 401/1/6
f 401/1/6 400/1/6 402/1/6
f 403/1/6 404/1/6 405/1/6
f 405/1/6 404/1/6 406/1/6
f 407/1/6 408/1/6 409/1/6
f 409/1/6 408/1/6 410/1/6
