# MagicaVoxel @ Ephtracy

# group
o 

# material
mtllib refreshmenttable.mtl
usemtl palette

# normals
vn -1 0 0
vn 1 0 0
vn 0 0 1
vn 0 0 -1
vn 0 -1 0
vn 0 1 0

# texcoords
vt 0.537109 0.5
vt 0.900391 0.5
vt 0.958984 0.5
vt 0.962891 0.5
vt 0.982422 0.5
vt 0.986328 0.5
vt 0.990234 0.5
vt 0.994141 0.5

# verts
v 0.4 1 -1
v 0.4 1 -1.2
v 0.4 1 -3.8
v 0.4 1 -4
v 0.4 2.7 -1.2
v 0.4 2.7 -3.8
v 0.4 3.1 -1
v 0.4 3.1 -4
v 0.7 3.3 -2
v 0.7 3.3 -2.1
v 0.7 3.7 -2
v 0.7 3.7 -2.1
v 0.8 3.1 -1.7
v 0.8 3.1 -3.1
v 0.8 3.2 -1.7
v 0.8 3.2 -2.4
v 0.8 4.2 -1.7
v 0.8 4.2 -2.4
v 0.8 4.5 -1.7
v 0.8 4.5 -3.1
v 0.9 3.2 -1.8
v 0.9 3.2 -2.3
v 0.9 3.3 -1.8
v 0.9 3.3 -2
v 0.9 3.3 -2.1
v 0.9 3.3 -2.3
v 0.9 3.4 -2
v 0.9 3.4 -2.1
v 0.9 3.5 -1.8
v 0.9 3.5 -2.3
v 0.9 3.6 -2
v 0.9 3.6 -2.1
v 0.9 3.7 -1.8
v 0.9 3.7 -2
v 0.9 3.7 -2.1
v 0.9 3.7 -2.3
v 0.9 3.8 -1.8
v 0.9 3.8 -2.3
v 1.9 3.1 -1.7
v 1.9 3.1 -3.5
v 1.9 4.6 -1.7
v 1.9 4.6 -3.5
v 4.4 1 -1
v 4.4 1 -1.2
v 4.4 1 -3.8
v 4.4 1 -4
v 4.4 2.7 -1.1
v 4.4 2.7 -1.2
v 4.4 2.7 -3.8
v 4.4 2.7 -3.9
v 4.4 2.8 -1
v 4.4 2.8 -1.1
v 4.4 2.8 -3.9
v 4.4 2.8 -4
v 0.6 1 -1
v 0.6 1 -1.2
v 0.6 1 -3.8
v 0.6 1 -4
v 0.6 2.7 -1.1
v 0.6 2.7 -1.2
v 0.6 2.7 -3.8
v 0.6 2.7 -3.9
v 0.6 2.8 -1
v 0.6 2.8 -1.1
v 0.6 2.8 -3.9
v 0.6 2.8 -4
v 0.8 3.4 -2
v 0.8 3.4 -2.1
v 0.8 3.6 -2
v 0.8 3.6 -2.1
v 1.5 3.2 -1.8
v 1.5 3.2 -2.3
v 1.5 3.3 -1.8
v 1.5 3.3 -2.3
v 1.5 3.5 -1.8
v 1.5 3.5 -2.3
v 1.5 3.7 -1.8
v 1.5 3.7 -2.3
v 1.5 3.8 -1.8
v 1.5 3.8 -2.3
v 1.6 3.1 -1.7
v 1.6 3.1 -3.1
v 1.6 3.2 -1.7
v 1.6 3.2 -2.4
v 1.6 4.2 -1.7
v 1.6 4.2 -2.4
v 1.6 4.5 -1.7
v 1.6 4.5 -3.1
v 4.4 3.1 -1.7
v 4.4 3.1 -3.5
v 4.4 4.6 -1.7
v 4.4 4.6 -3.5
v 4.6 1 -1
v 4.6 1 -1.2
v 4.6 1 -3.8
v 4.6 1 -4
v 4.6 2.7 -1.2
v 4.6 2.7 -3.8
v 4.6 3.1 -1
v 4.6 3.1 -4
v 0.4 1 -1
v 0.4 3.1 -1
v 0.6 1 -1
v 0.6 2.8 -1
v 4.4 1 -1
v 4.4 2.8 -1
v 4.6 1 -1
v 4.6 3.1 -1
v 0.6 2.7 -1.1
v 0.6 2.8 -1.1
v 4.4 2.7 -1.1
v 4.4 2.8 -1.1
v 0.8 3.1 -1.7
v 0.8 3.2 -1.7
v 0.8 4.2 -1.7
v 0.8 4.5 -1.7
v 1.6 3.1 -1.7
v 1.6 3.2 -1.7
v 1.6 4.2 -1.7
v 1.6 4.5 -1.7
v 1.9 3.1 -1.7
v 1.9 4.6 -1.7
v 2 3.3 -1.7
v 2 4.5 -1.7
v 3.8 3.3 -1.7
v 3.8 4.5 -1.7
v 3.9 3.3 -1.7
v 3.9 3.5 -1.7
v 3.9 4.3 -1.7
v 3.9 4.5 -1.7
v 4.3 3.3 -1.7
v 4.3 3.5 -1.7
v 4.3 4.3 -1.7
v 4.3 4.5 -1.7
v 4.4 3.1 -1.7
v 4.4 4.6 -1.7
v 0.9 3.2 -1.8
v 0.9 3.3 -1.8
v 0.9 3.5 -1.8
v 0.9 3.7 -1.8
v 0.9 3.8 -1.8
v 1.5 3.2 -1.8
v 1.5 3.3 -1.8
v 1.5 3.5 -1.8
v 1.5 3.7 -1.8
v 1.5 3.8 -1.8
v 0.7 3.3 -2
v 0.7 3.7 -2
v 0.8 3.4 -2
v 0.8 3.6 -2
v 0.9 3.3 -2
v 0.9 3.4 -2
v 0.9 3.6 -2
v 0.9 3.7 -2
v 0.8 3.2 -2.4
v 0.8 4.2 -2.4
v 1.6 3.2 -2.4
v 1.6 4.2 -2.4
v 0.4 1 -3.8
v 0.4 2.7 -3.8
v 0.6 1 -3.8
v 0.6 2.7 -3.8
v 4.4 1 -3.8
v 4.4 2.7 -3.8
v 4.6 1 -3.8
v 4.6 2.7 -3.8
v 0.4 1 -1.2
v 0.4 2.7 -1.2
v 0.6 1 -1.2
v 0.6 2.7 -1.2
v 4.4 1 -1.2
v 4.4 2.7 -1.2
v 4.6 1 -1.2
v 4.6 2.7 -1.2
v 0.7 3.3 -2.1
v 0.7 3.7 -2.1
v 0.8 3.4 -2.1
v 0.8 3.6 -2.1
v 0.9 3.3 -2.1
v 0.9 3.4 -2.1
v 0.9 3.6 -2.1
v 0.9 3.7 -2.1
v 0.9 3.2 -2.3
v 0.9 3.3 -2.3
v 0.9 3.5 -2.3
v 0.9 3.7 -2.3
v 0.9 3.8 -2.3
v 1.5 3.2 -2.3
v 1.5 3.3 -2.3
v 1.5 3.5 -2.3
v 1.5 3.7 -2.3
v 1.5 3.8 -2.3
v 0.8 3.1 -3.1
v 0.8 4.5 -3.1
v 0.9 3.3 -3.1
v 0.9 3.5 -3.1
v 1.5 3.3 -3.1
v 1.5 3.5 -3.1
v 1.6 3.1 -3.1
v 1.6 4.5 -3.1
v 1.9 3.1 -3.5
v 1.9 4.6 -3.5
v 4.4 3.1 -3.5
v 4.4 4.6 -3.5
v 0.6 2.7 -3.9
v 0.6 2.8 -3.9
v 4.4 2.7 -3.9
v 4.4 2.8 -3.9
v 0.4 1 -4
v 0.4 3.1 -4
v 0.6 1 -4
v 0.6 2.8 -4
v 4.4 1 -4
v 4.4 2.8 -4
v 4.6 1 -4
v 4.6 3.1 -4
v 0.4 1 -1
v 0.6 1 -1
v 4.4 1 -1
v 4.6 1 -1
v 0.4 1 -1.2
v 0.6 1 -1.2
v 4.4 1 -1.2
v 4.6 1 -1.2
v 0.4 1 -3.8
v 0.6 1 -3.8
v 4.4 1 -3.8
v 4.6 1 -3.8
v 0.4 1 -4
v 0.6 1 -4
v 4.4 1 -4
v 4.6 1 -4
v 0.6 2.7 -1.1
v 4.4 2.7 -1.1
v 0.4 2.7 -1.2
v 0.6 2.7 -1.2
v 4.4 2.7 -1.2
v 4.6 2.7 -1.2
v 0.4 2.7 -3.8
v 0.6 2.7 -3.8
v 4.4 2.7 -3.8
v 4.6 2.7 -3.8
v 0.6 2.7 -3.9
v 4.4 2.7 -3.9
v 0.6 2.8 -1
v 4.4 2.8 -1
v 0.6 2.8 -1.1
v 4.4 2.8 -1.1
v 0.6 2.8 -3.9
v 4.4 2.8 -3.9
v 0.6 2.8 -4
v 4.4 2.8 -4
v 0.7 3.3 -2
v 0.9 3.3 -2
v 0.7 3.3 -2.1
v 0.9 3.3 -2.1
v 0.8 3.6 -2
v 0.9 3.6 -2
v 0.8 3.6 -2.1
v 0.9 3.6 -2.1
v 0.8 4.2 -1.7
v 1.6 4.2 -1.7
v 0.8 4.2 -2.4
v 1.6 4.2 -2.4
v 0.4 3.1 -1
v 4.6 3.1 -1
v 0.8 3.1 -1.7
v 1.6 3.1 -1.7
v 1.9 3.1 -1.7
v 4.4 3.1 -1.7
v 0.8 3.1 -3.1
v 1.6 3.1 -3.1
v 1.9 3.1 -3.5
v 4.4 3.1 -3.5
v 0.4 3.1 -4
v 4.6 3.1 -4
v 0.8 3.2 -1.7
v 1.6 3.2 -1.7
v 0.9 3.2 -1.8
v 1.5 3.2 -1.8
v 0.9 3.2 -2.3
v 1.5 3.2 -2.3
v 0.8 3.2 -2.4
v 1.6 3.2 -2.4
v 0.8 3.4 -2
v 0.9 3.4 -2
v 0.8 3.4 -2.1
v 0.9 3.4 -2.1
v 0.7 3.7 -2
v 0.9 3.7 -2
v 0.7 3.7 -2.1
v 0.9 3.7 -2.1
v 0.9 3.8 -1.8
v 1.5 3.8 -1.8
v 0.9 3.8 -2.3
v 1.5 3.8 -2.3
v 0.8 4.5 -1.7
v 1.6 4.5 -1.7
v 0.8 4.5 -3.1
v 1.6 4.5 -3.1
v 1.9 4.6 -1.7
v 4.4 4.6 -1.7
v 1.9 4.6 -3.5
v 4.4 4.6 -3.5

# faces
f 5/8/1 2/8/1 1/8/1
f 6/8/1 4/8/1 3/8/1
f 7/8/1 5/8/1 1/8/1
f 7/8/1 6/8/1 5/8/1
f 8/8/1 4/8/1 6/8/1
f 8/8/1 6/8/1 7/8/1
f 11/8/1 10/8/1 9/8/1
f 12/8/1 10/8/1 11/8/1
f 15/5/1 14/5/1 13/5/1
f 16/5/1 14/5/1 15/5/1
f 18/5/1 14/5/1 16/5/1
f 19/5/1 18/5/1 17/5/1
f 20/5/1 14/5/1 18/5/1
f 20/5/1 18/5/1 19/5/1
f 23/8/1 22/8/1 21/8/1
f 24/8/1 22/8/1 23/8/1
f 25/8/1 22/8/1 24/8/1
f 26/8/1 22/8/1 25/8/1
f 27/1/1 24/1/1 23/1/1
f 28/1/1 26/1/1 25/1/1
f 29/1/1 27/1/1 23/1/1
f 29/1/1 28/1/1 27/1/1
f 30/1/1 26/1/1 28/1/1
f 30/1/1 28/1/1 29/1/1
f 31/4/1 30/4/1 29/4/1
f 32/4/1 30/4/1 31/4/1
f 33/4/1 31/4/1 29/4/1
f 34/4/1 31/4/1 33/4/1
f 35/4/1 30/4/1 32/4/1
f 36/4/1 30/4/1 35/4/1
f 37/8/1 34/8/1 33/8/1
f 37/8/1 35/8/1 34/8/1
f 37/8/1 36/8/1 35/8/1
f 38/8/1 36/8/1 37/8/1
f 41/7/1 40/7/1 39/7/1
f 42/7/1 40/7/1 41/7/1
f 47/8/1 44/8/1 43/8/1
f 48/8/1 44/8/1 47/8/1
f 49/8/1 46/8/1 45/8/1
f 50/8/1 46/8/1 49/8/1
f 51/8/1 47/8/1 43/8/1
f 52/8/1 47/8/1 51/8/1
f 53/8/1 46/8/1 50/8/1
f 54/8/1 46/8/1 53/8/1
f 55/8/2 56/8/2 59/8/2
f 59/8/2 56/8/2 60/8/2
f 57/8/2 58/8/2 61/8/2
f 61/8/2 58/8/2 62/8/2
f 55/8/2 59/8/2 63/8/2
f 63/8/2 59/8/2 64/8/2
f 62/8/2 58/8/2 65/8/2
f 65/8/2 58/8/2 66/8/2
f 67/8/2 68/8/2 69/8/2
f 69/8/2 68/8/2 70/8/2
f 71/8/2 72/8/2 73/8/2
f 73/8/2 72/8/2 74/8/2
f 73/1/2 74/1/2 75/1/2
f 75/1/2 74/1/2 76/1/2
f 75/4/2 76/4/2 77/4/2
f 77/4/2 76/4/2 78/4/2
f 77/8/2 78/8/2 79/8/2
f 79/8/2 78/8/2 80/8/2
f 81/5/2 82/5/2 83/5/2
f 83/5/2 82/5/2 84/5/2
f 84/5/2 82/5/2 86/5/2
f 85/5/2 86/5/2 87/5/2
f 86/5/2 82/5/2 88/5/2
f 87/5/2 86/5/2 88/5/2
f 89/7/2 90/7/2 91/7/2
f 91/7/2 90/7/2 92/7/2
f 93/8/2 94/8/2 97/8/2
f 95/8/2 96/8/2 98/8/2
f 93/8/2 97/8/2 99/8/2
f 97/8/2 98/8/2 99/8/2
f 98/8/2 96/8/2 100/8/2
f 99/8/2 98/8/2 100/8/2
f 103/8/3 102/8/3 101/8/3
f 104/8/3 102/8/3 103/8/3
f 106/8/3 102/8/3 104/8/3
f 107/8/3 106/8/3 105/8/3
f 108/8/3 102/8/3 106/8/3
f 108/8/3 106/8/3 107/8/3
f 111/8/3 110/8/3 109/8/3
f 112/8/3 110/8/3 111/8/3
f 117/5/3 114/5/3 113/5/3
f 118/5/3 114/5/3 117/5/3
f 119/5/3 116/5/3 115/5/3
f 120/5/3 116/5/3 119/5/3
f 123/7/3 122/7/3 121/7/3
f 124/7/3 122/7/3 123/7/3
f 125/7/3 123/7/3 121/7/3
f 125/8/3 124/8/3 123/8/3
f 126/7/3 122/7/3 124/7/3
f 126/8/3 124/8/3 125/8/3
f 127/7/3 125/7/3 121/7/3
f 127/7/3 126/7/3 125/7/3
f 128/7/3 126/7/3 127/7/3
f 129/7/3 126/7/3 128/7/3
f 130/7/3 122/7/3 126/7/3
f 130/7/3 126/7/3 129/7/3
f 131/7/3 127/7/3 121/7/3
f 131/6/3 128/6/3 127/6/3
f 132/8/3 129/8/3 128/8/3
f 132/6/3 128/6/3 131/6/3
f 133/2/3 130/2/3 129/2/3
f 133/8/3 129/8/3 132/8/3
f 134/7/3 122/7/3 130/7/3
f 134/2/3 130/2/3 133/2/3
f 135/7/3 131/7/3 121/7/3
f 135/7/3 133/7/3 132/7/3
f 135/7/3 134/7/3 133/7/3
f 135/7/3 132/7/3 131/7/3
f 136/7/3 122/7/3 134/7/3
f 136/7/3 134/7/3 135/7/3
f 142/8/3 138/8/3 137/8/3
f 143/1/3 139/1/3 138/1/3
f 143/8/3 138/8/3 142/8/3
f 144/4/3 140/4/3 139/4/3
f 144/1/3 139/1/3 143/1/3
f 145/8/3 141/8/3 140/8/3
f 145/4/3 140/4/3 144/4/3
f 146/8/3 141/8/3 145/8/3
f 149/8/3 148/8/3 147/8/3
f 150/8/3 148/8/3 149/8/3
f 151/8/3 149/8/3 147/8/3
f 152/8/3 149/8/3 151/8/3
f 153/8/3 148/8/3 150/8/3
f 154/8/3 148/8/3 153/8/3
f 157/5/3 156/5/3 155/5/3
f 158/5/3 156/5/3 157/5/3
f 161/8/3 160/8/3 159/8/3
f 162/8/3 160/8/3 161/8/3
f 165/8/3 164/8/3 163/8/3
f 166/8/3 164/8/3 165/8/3
f 167/8/4 168/8/4 169/8/4
f 169/8/4 168/8/4 170/8/4
f 171/8/4 172/8/4 173/8/4
f 173/8/4 172/8/4 174/8/4
f 175/8/4 176/8/4 177/8/4
f 177/8/4 176/8/4 178/8/4
f 175/8/4 177/8/4 179/8/4
f 179/8/4 177/8/4 180/8/4
f 178/8/4 176/8/4 181/8/4
f 181/8/4 176/8/4 182/8/4
f 183/8/4 184/8/4 188/8/4
f 184/1/4 185/1/4 189/1/4
f 188/8/4 184/8/4 189/8/4
f 185/4/4 186/4/4 190/4/4
f 189/1/4 185/1/4 190/1/4
f 186/8/4 187/8/4 191/8/4
f 190/4/4 186/4/4 191/4/4
f 191/8/4 187/8/4 192/8/4
f 193/5/4 194/5/4 195/5/4
f 195/5/4 194/5/4 196/5/4
f 193/5/4 195/5/4 197/5/4
f 195/1/4 196/1/4 197/1/4
f 196/5/4 194/5/4 198/5/4
f 197/1/4 196/1/4 198/1/4
f 193/5/4 197/5/4 199/5/4
f 197/5/4 198/5/4 199/5/4
f 198/5/4 194/5/4 200/5/4
f 199/5/4 198/5/4 200/5/4
f 201/7/4 202/7/4 203/7/4
f 203/7/4 202/7/4 204/7/4
f 205/8/4 206/8/4 207/8/4
f 207/8/4 206/8/4 208/8/4
f 209/8/4 210/8/4 211/8/4
f 211/8/4 210/8/4 212/8/4
f 212/8/4 210/8/4 214/8/4
f 213/8/4 214/8/4 215/8/4
f 214/8/4 210/8/4 216/8/4
f 215/8/4 214/8/4 216/8/4
f 221/8/5 218/8/5 217/8/5
f 222/8/5 218/8/5 221/8/5
f 223/8/5 220/8/5 219/8/5
f 224/8/5 220/8/5 223/8/5
f 229/8/5 226/8/5 225/8/5
f 230/8/5 226/8/5 229/8/5
f 231/8/5 228/8/5 227/8/5
f 232/8/5 228/8/5 231/8/5
f 236/8/5 234/8/5 233/8/5
f 237/8/5 234/8/5 236/8/5
f 239/8/5 236/8/5 235/8/5
f 239/8/5 238/8/5 237/8/5
f 239/8/5 237/8/5 236/8/5
f 240/8/5 238/8/5 239/8/5
f 241/8/5 238/8/5 240/8/5
f 242/8/5 238/8/5 241/8/5
f 243/8/5 241/8/5 240/8/5
f 244/8/5 241/8/5 243/8/5
f 247/8/5 246/8/5 245/8/5
f 248/8/5 246/8/5 247/8/5
f 251/8/5 250/8/5 249/8/5
f 252/8/5 250/8/5 251/8/5
f 255/8/5 254/8/5 253/8/5
f 256/8/5 254/8/5 255/8/5
f 259/8/5 258/8/5 257/8/5
f 260/8/5 258/8/5 259/8/5
f 263/5/5 262/5/5 261/5/5
f 264/5/5 262/5/5 263/5/5
f 265/8/6 266/8/6 267/8/6
f 267/8/6 266/8/6 268/8/6
f 268/8/6 266/8/6 269/8/6
f 269/8/6 266/8/6 270/8/6
f 265/8/6 267/8/6 271/8/6
f 268/8/6 269/8/6 272/8/6
f 272/8/6 269/8/6 273/8/6
f 271/8/6 272/8/6 273/8/6
f 270/8/6 266/8/6 274/8/6
f 271/8/6 273/8/6 275/8/6
f 273/8/6 274/8/6 275/8/6
f 265/8/6 271/8/6 275/8/6
f 274/8/6 266/8/6 276/8/6
f 275/8/6 274/8/6 276/8/6
f 277/5/6 278/5/6 279/5/6
f 279/5/6 278/5/6 280/5/6
f 277/5/6 279/5/6 281/5/6
f 280/5/6 278/5/6 282/5/6
f 277/5/6 281/5/6 283/5/6
f 281/5/6 282/5/6 283/5/6
f 282/5/6 278/5/6 284/5/6
f 283/5/6 282/5/6 284/5/6
f 285/8/6 286/8/6 287/8/6
f 287/8/6 286/8/6 288/8/6
f 289/8/6 290/8/6 291/8/6
f 291/8/6 290/8/6 292/8/6
f 293/8/6 294/8/6 295/8/6
f 295/8/6 294/8/6 296/8/6
f 297/5/6 298/5/6 299/5/6
f 299/5/6 298/5/6 300/5/6
f 301/7/6 302/7/6 303/7/6
f 303/7/6 302/7/6 304/7/6
