<svg data-v-423bf9ae="" xmlns="http://www.w3.org/2000/svg" viewBox="0 0 576 90" class="iconLeft"><!----><!----><!----><g data-v-423bf9ae="" id="ac17e968-898d-47e6-8b73-04352f260653" fill="white" transform="matrix(4.184100373888211,0,0,4.184100373888211,80.84449084599333,9.686194035478827)"><path d="M7.36 9.11L7.36 9.11Q7.36 10.09 6.93 10.86L6.93 10.86L6.93 10.86Q6.50 11.62 5.73 12.05L5.73 12.05L5.73 12.05Q4.97 12.47 3.99 12.47L3.99 12.47L3.99 12.47Q3.01 12.47 2.25 12.05L2.25 12.05L2.25 12.05Q1.48 11.62 1.06 10.86L1.06 10.86L1.06 10.86Q0.63 10.09 0.63 9.11L0.63 9.11L0.63 9.11Q0.63 8.79 0.84 8.59L0.84 8.59L0.84 8.59Q1.05 8.39 1.36 8.39L1.36 8.39L1.36 8.39Q1.68 8.39 1.88 8.59L1.88 8.59L1.88 8.59Q2.09 8.79 2.09 9.11L2.09 9.11L2.09 9.11Q2.09 10.01 2.62 10.58L2.62 10.58L2.62 10.58Q3.15 11.16 3.99 11.16L3.99 11.16L3.99 11.16Q4.83 11.16 5.37 10.58L5.37 10.58L5.37 10.58Q5.91 10.01 5.91 9.11L5.91 9.11L5.91 2.13L5.91 2.13Q5.91 1.81 6.11 1.60L6.11 1.60L6.11 1.60Q6.31 1.40 6.62 1.40L6.62 1.40L6.62 1.40Q6.94 1.40 7.15 1.60L7.15 1.60L7.15 1.60Q7.36 1.81 7.36 2.13L7.36 2.13L7.36 9.11ZM16.90 8.39L16.90 8.39Q16.90 8.65 16.72 8.83L16.72 8.83L16.72 8.83Q16.53 9.00 16.25 9.00L16.25 9.00L10.93 9.00L10.93 9.00Q11.09 9.98 11.82 10.58L11.82 10.58L11.82 10.58Q12.56 11.19 13.62 11.19L13.62 11.19L13.62 11.19Q14.04 11.19 14.50 11.03L14.50 11.03L14.50 11.03Q14.95 10.88 15.25 10.65L15.25 10.65L15.25 10.65Q15.44 10.50 15.71 10.50L15.71 10.50L15.71 10.50Q15.97 10.50 16.13 10.64L16.13 10.64L16.13 10.64Q16.38 10.85 16.38 11.12L16.38 11.12L16.38 11.12Q16.38 11.37 16.16 11.54L16.16 11.54L16.16 11.54Q15.68 11.91 14.97 12.15L14.97 12.15L14.97 12.15Q14.27 12.39 13.62 12.39L13.62 12.39L13.62 12.39Q12.47 12.39 11.56 11.89L11.56 11.89L11.56 11.89Q10.65 11.40 10.14 10.51L10.14 10.51L10.14 10.51Q9.63 9.63 9.63 8.51L9.63 8.51L9.63 8.51Q9.63 7.39 10.11 6.50L10.11 6.50L10.11 6.50Q10.60 5.61 11.46 5.12L11.46 5.12L11.46 5.12Q12.32 4.62 13.41 4.62L13.41 4.62L13.41 4.62Q14.49 4.62 15.27 5.10L15.27 5.10L15.27 5.10Q16.06 5.57 16.48 6.43L16.48 6.43L16.48 6.43Q16.90 7.28 16.90 8.39L16.90 8.39ZM13.41 5.82L13.41 5.82Q12.39 5.82 11.75 6.38L11.75 6.38L11.75 6.38Q11.12 6.94 10.95 7.88L10.95 7.88L15.61 7.88L15.61 7.88Q15.48 6.94 14.91 6.38L14.91 6.38L14.91 6.38Q14.34 5.82 13.41 5.82L13.41 5.82ZM21.98 10.93L21.98 10.93Q22.23 10.93 22.41 11.13L22.41 11.13L22.41 11.13Q22.58 11.33 22.58 11.63L22.58 11.63L22.58 11.63Q22.58 11.94 22.35 12.14L22.35 12.14L22.35 12.14Q22.12 12.33 21.76 12.33L21.76 12.33L21.50 12.33L21.50 12.33Q20.82 12.33 20.25 11.98L20.25 11.98L20.25 11.98Q19.68 11.62 19.36 11.00L19.36 11.00L19.36 11.00Q19.04 10.39 19.04 9.62L19.04 9.62L19.04 6.16L18.40 6.16L18.40 6.16Q18.10 6.16 17.92 5.99L17.92 5.99L17.92 5.99Q17.74 5.82 17.74 5.57L17.74 5.57L17.74 5.57Q17.74 5.29 17.92 5.12L17.92 5.12L17.92 5.12Q18.10 4.96 18.40 4.96L18.40 4.96L19.04 4.96L19.04 2.94L19.04 2.94Q19.04 2.63 19.24 2.44L19.24 2.44L19.24 2.44Q19.43 2.24 19.74 2.24L19.74 2.24L19.74 2.24Q20.05 2.24 20.24 2.44L20.24 2.44L20.24 2.44Q20.44 2.63 20.44 2.94L20.44 2.94L20.44 4.96L21.63 4.96L21.63 4.96Q21.92 4.96 22.11 5.12L22.11 5.12L22.11 5.12Q22.29 5.29 22.29 5.57L22.29 5.57L22.29 5.57Q22.29 5.82 22.11 5.99L22.11 5.99L22.11 5.99Q21.92 6.16 21.63 6.16L21.63 6.16L20.44 6.16L20.44 9.62L20.44 9.62Q20.44 10.18 20.75 10.56L20.75 10.56L20.75 10.56Q21.06 10.93 21.50 10.93L21.50 10.93L21.98 10.93ZM28.18 4.62L28.18 4.62Q29.26 4.62 30.15 5.13L30.15 5.13L30.15 5.13Q31.04 5.64 31.54 6.53L31.54 6.53L31.54 6.53Q32.05 7.42 32.05 8.51L32.05 8.51L32.05 8.51Q32.05 9.60 31.58 10.49L31.58 10.49L31.58 10.49Q31.11 11.38 30.29 11.89L30.29 11.89L30.29 11.89Q29.47 12.39 28.46 12.39L28.46 12.39L28.46 12.39Q27.65 12.39 26.95 12.05L26.95 12.05L26.95 12.05Q26.25 11.72 25.76 11.12L25.76 11.12L25.76 14.90L25.76 14.90Q25.76 15.22 25.56 15.41L25.56 15.41L25.56 15.41Q25.37 15.61 25.05 15.61L25.05 15.61L25.05 15.61Q24.74 15.61 24.54 15.41L24.54 15.41L24.54 15.41Q24.33 15.22 24.33 14.90L24.33 14.90L24.33 8.51L24.33 8.51Q24.33 7.42 24.84 6.53L24.84 6.53L24.84 6.53Q25.35 5.64 26.23 5.13L26.23 5.13L26.23 5.13Q27.10 4.62 28.18 4.62L28.18 4.62ZM28.18 11.13L28.18 11.13Q28.88 11.13 29.45 10.79L29.45 10.79L29.45 10.79Q30.02 10.44 30.34 9.85L30.34 9.85L30.34 9.85Q30.67 9.25 30.67 8.51L30.67 8.51L30.67 8.51Q30.67 7.77 30.34 7.17L30.34 7.17L30.34 7.17Q30.02 6.57 29.45 6.22L29.45 6.22L29.45 6.22Q28.88 5.88 28.18 5.88L28.18 5.88L28.18 5.88Q27.48 5.88 26.91 6.22L26.91 6.22L26.91 6.22Q26.35 6.57 26.03 7.17L26.03 7.17L26.03 7.17Q25.70 7.77 25.70 8.51L25.70 8.51L25.70 8.51Q25.70 9.25 26.03 9.85L26.03 9.85L26.03 9.85Q26.35 10.44 26.91 10.79L26.91 10.79L26.91 10.79Q27.48 11.13 28.18 11.13L28.18 11.13ZM37.65 4.62L37.65 4.62Q38.72 4.62 39.60 5.13L39.60 5.13L39.60 5.13Q40.47 5.64 40.98 6.53L40.98 6.53L40.98 6.53Q41.50 7.42 41.50 8.51L41.50 8.51L41.50 11.63L41.50 11.63Q41.50 11.94 41.29 12.14L41.29 12.14L41.29 12.14Q41.09 12.35 40.78 12.35L40.78 12.35L40.78 12.35Q40.47 12.35 40.27 12.14L40.27 12.14L40.27 12.14Q40.07 11.94 40.07 11.63L40.07 11.63L40.07 11.12L40.07 11.12Q39.58 11.72 38.88 12.05L38.88 12.05L38.88 12.05Q38.18 12.39 37.37 12.39L37.37 12.39L37.37 12.39Q36.36 12.39 35.54 11.89L35.54 11.89L35.54 11.89Q34.72 11.38 34.25 10.49L34.25 10.49L34.25 10.49Q33.78 9.60 33.78 8.51L33.78 8.51L33.78 8.51Q33.78 7.42 34.29 6.53L34.29 6.53L34.29 6.53Q34.79 5.64 35.68 5.13L35.68 5.13L35.68 5.13Q36.57 4.62 37.65 4.62L37.65 4.62ZM37.65 11.13L37.65 11.13Q38.35 11.13 38.91 10.79L38.91 10.79L38.91 10.79Q39.48 10.44 39.80 9.85L39.80 9.85L39.80 9.85Q40.12 9.25 40.12 8.51L40.12 8.51L40.12 8.51Q40.12 7.77 39.80 7.17L39.80 7.17L39.80 7.17Q39.48 6.57 38.91 6.22L38.91 6.22L38.91 6.22Q38.35 5.88 37.65 5.88L37.65 5.88L37.65 5.88Q36.95 5.88 36.38 6.22L36.38 6.22L36.38 6.22Q35.81 6.57 35.48 7.17L35.48 7.17L35.48 7.17Q35.15 7.77 35.15 8.51L35.15 8.51L35.15 8.51Q35.15 9.25 35.48 9.85L35.48 9.85L35.48 9.85Q35.81 10.44 36.38 10.79L36.38 10.79L36.38 10.79Q36.95 11.13 37.65 11.13L37.65 11.13ZM47.03 4.62L47.03 4.62Q48.68 4.62 49.77 5.88L49.77 5.88L49.77 5.88Q49.91 6.03 49.91 6.24L49.91 6.24L49.91 6.24Q49.91 6.55 49.60 6.76L49.60 6.76L49.60 6.76Q49.46 6.86 49.28 6.86L49.28 6.86L49.28 6.86Q48.96 6.86 48.73 6.61L48.73 6.61L48.73 6.61Q48.38 6.23 47.97 6.05L47.97 6.05L47.97 6.05Q47.56 5.88 47.03 5.88L47.03 5.88L47.03 5.88Q45.95 5.88 45.28 6.60L45.28 6.60L45.28 6.60Q44.60 7.32 44.60 8.51L44.60 8.51L44.60 8.51Q44.60 9.27 44.92 9.86L44.92 9.86L44.92 9.86Q45.23 10.46 45.80 10.79L45.80 10.79L45.80 10.79Q46.37 11.13 47.10 11.13L47.10 11.13L47.10 11.13Q48.05 11.13 48.64 10.64L48.64 10.64L48.64 10.64Q48.90 10.44 49.15 10.44L49.15 10.44L49.15 10.44Q49.35 10.44 49.52 10.57L49.52 10.57L49.52 10.57Q49.78 10.79 49.78 11.07L49.78 11.07L49.78 11.07Q49.78 11.28 49.62 11.45L49.62 11.45L49.62 11.45Q48.61 12.39 47.10 12.39L47.10 12.39L47.10 12.39Q45.99 12.39 45.11 11.89L45.11 11.89L45.11 11.89Q44.23 11.38 43.73 10.49L43.73 10.49L43.73 10.49Q43.23 9.60 43.23 8.51L43.23 8.51L43.23 8.51Q43.23 7.39 43.72 6.50L43.72 6.50L43.72 6.50Q44.20 5.61 45.07 5.12L45.07 5.12L45.07 5.12Q45.93 4.62 47.03 4.62L47.03 4.62ZM57.82 11.33L57.82 11.33Q57.97 11.49 57.97 11.75L57.97 11.75L57.97 11.75Q57.97 12.05 57.72 12.26L57.72 12.26L57.72 12.26Q57.51 12.43 57.27 12.43L57.27 12.43L57.27 12.43Q56.97 12.43 56.77 12.18L56.77 12.18L54.11 8.89L53.41 9.51L53.41 11.65L53.41 11.65Q53.41 11.96 53.22 12.14L53.22 12.14L53.22 12.14Q53.03 12.33 52.72 12.33L52.72 12.33L52.72 12.33Q52.42 12.33 52.23 12.14L52.23 12.14L52.23 12.14Q52.04 11.96 52.04 11.65L52.04 11.65L52.04 2.09L52.04 2.09Q52.04 1.78 52.23 1.59L52.23 1.59L52.23 1.59Q52.42 1.40 52.72 1.40L52.72 1.40L52.72 1.40Q53.03 1.40 53.22 1.59L53.22 1.59L53.22 1.59Q53.41 1.78 53.41 2.09L53.41 2.09L53.41 7.78L56.81 4.75L56.81 4.75Q56.99 4.56 57.25 4.56L57.25 4.56L57.25 4.56Q57.54 4.56 57.72 4.79L57.72 4.79L57.72 4.79Q57.90 4.97 57.90 5.22L57.90 5.22L57.90 5.22Q57.90 5.52 57.68 5.70L57.68 5.70L55.10 7.99L57.82 11.33ZM67.91 1.27L67.91 1.27Q69.12 1.27 69.94 1.76L69.94 1.76L69.94 1.76Q70.77 2.25 71.34 3.16L71.34 3.16L71.34 3.16Q71.51 3.43 71.51 3.67L71.51 3.67L71.51 3.67Q71.51 3.98 71.23 4.17L71.23 4.17L71.23 4.17Q71.08 4.27 70.87 4.27L70.87 4.27L70.87 4.27Q70.66 4.27 70.48 4.16L70.48 4.16L70.48 4.16Q70.29 4.06 70.20 3.88L70.20 3.88L70.20 3.88Q69.82 3.25 69.25 2.92L69.25 2.92L69.25 2.92Q68.68 2.59 67.82 2.59L67.82 2.59L67.82 2.59Q66.75 2.59 66.09 3.00L66.09 3.00L66.09 3.00Q65.44 3.42 65.44 4.20L65.44 4.20L65.44 4.20Q65.44 4.93 66.02 5.42L66.02 5.42L66.02 5.42Q66.61 5.91 68.12 6.06L68.12 6.06L68.12 6.06Q69.80 6.23 70.73 7.08L70.73 7.08L70.73 7.08Q71.65 7.92 71.65 9.31L71.65 9.31L71.65 9.31Q71.65 10.32 71.11 11.04L71.11 11.04L71.11 11.04Q70.56 11.76 69.66 12.12L69.66 12.12L69.66 12.12Q68.75 12.47 67.72 12.47L67.72 12.47L67.72 12.47Q66.36 12.47 65.25 11.86L65.25 11.86L65.25 11.86Q64.13 11.24 63.71 10.25L63.71 10.25L63.71 10.25Q63.64 10.08 63.64 9.97L63.64 9.97L63.64 9.97Q63.64 9.76 63.80 9.60L63.80 9.60L63.80 9.60Q63.95 9.44 64.22 9.38L64.22 9.38L64.22 9.38Q64.26 9.37 64.36 9.37L64.36 9.37L64.36 9.37Q64.58 9.37 64.78 9.50L64.78 9.50L64.78 9.50Q64.99 9.63 65.09 9.86L65.09 9.86L65.09 9.86Q65.34 10.40 66.08 10.78L66.08 10.78L66.08 10.78Q66.82 11.16 67.72 11.16L67.72 11.16L67.72 11.16Q68.77 11.16 69.50 10.67L69.50 10.67L69.50 10.67Q70.22 10.19 70.22 9.35L70.22 9.35L70.22 9.35Q70.22 8.55 69.61 7.99L69.61 7.99L69.61 7.99Q68.99 7.42 67.73 7.29L67.73 7.29L67.73 7.29Q66.00 7.13 65.00 6.28L65.00 6.28L65.00 6.28Q64.01 5.43 64.01 4.16L64.01 4.16L64.01 4.16Q64.01 3.26 64.52 2.61L64.52 2.61L64.52 2.61Q65.03 1.96 65.92 1.62L65.92 1.62L65.92 1.62Q66.81 1.27 67.91 1.27L67.91 1.27ZM77.00 10.93L77.00 10.93Q77.25 10.93 77.43 11.13L77.43 11.13L77.43 11.13Q77.60 11.33 77.60 11.63L77.60 11.63L77.60 11.63Q77.60 11.94 77.37 12.14L77.37 12.14L77.37 12.14Q77.14 12.33 76.78 12.33L76.78 12.33L76.52 12.33L76.52 12.33Q75.84 12.33 75.27 11.98L75.27 11.98L75.27 11.98Q74.70 11.62 74.38 11.00L74.38 11.00L74.38 11.00Q74.06 10.39 74.06 9.62L74.06 9.62L74.06 6.16L73.42 6.16L73.42 6.16Q73.12 6.16 72.94 5.99L72.94 5.99L72.94 5.99Q72.76 5.82 72.76 5.57L72.76 5.57L72.76 5.57Q72.76 5.29 72.94 5.12L72.94 5.12L72.94 5.12Q73.12 4.96 73.42 4.96L73.42 4.96L74.06 4.96L74.06 2.94L74.06 2.94Q74.06 2.63 74.26 2.44L74.26 2.44L74.26 2.44Q74.45 2.24 74.76 2.24L74.76 2.24L74.76 2.24Q75.07 2.24 75.26 2.44L75.26 2.44L75.26 2.44Q75.46 2.63 75.46 2.94L75.46 2.94L75.46 4.96L76.65 4.96L76.65 4.96Q76.94 4.96 77.13 5.12L77.13 5.12L77.13 5.12Q77.31 5.29 77.31 5.57L77.31 5.57L77.31 5.57Q77.31 5.82 77.13 5.99L77.13 5.99L77.13 5.99Q76.94 6.16 76.65 6.16L76.65 6.16L75.46 6.16L75.46 9.62L75.46 9.62Q75.46 10.18 75.77 10.56L75.77 10.56L75.77 10.56Q76.08 10.93 76.52 10.93L76.52 10.93L77.00 10.93ZM85.67 4.66L85.67 4.66Q85.99 4.66 86.18 4.86L86.18 4.86L86.18 4.86Q86.38 5.05 86.38 5.38L86.38 5.38L86.38 11.62L86.38 11.62Q86.38 11.93 86.18 12.13L86.18 12.13L86.18 12.13Q85.99 12.33 85.67 12.33L85.67 12.33L85.67 12.33Q85.36 12.33 85.16 12.13L85.16 12.13L85.16 12.13Q84.95 11.93 84.95 11.62L84.95 11.62L84.95 11.47L84.95 11.47Q84.50 11.91 83.89 12.16L83.89 12.16L83.89 12.16Q83.27 12.40 82.57 12.40L82.57 12.40L82.57 12.40Q81.61 12.40 80.84 11.98L80.84 11.98L80.84 11.98Q80.07 11.56 79.63 10.76L79.63 10.76L79.63 10.76Q79.20 9.95 79.20 8.82L79.20 8.82L79.20 5.38L79.20 5.38Q79.20 5.07 79.40 4.86L79.40 4.86L79.40 4.86Q79.60 4.66 79.91 4.66L79.91 4.66L79.91 4.66Q80.22 4.66 80.42 4.86L80.42 4.86L80.42 4.86Q80.63 5.07 80.63 5.38L80.63 5.38L80.63 8.82L80.63 8.82Q80.63 9.95 81.24 10.54L81.24 10.54L81.24 10.54Q81.84 11.12 82.85 11.12L82.85 11.12L82.85 11.12Q83.44 11.12 83.92 10.88L83.92 10.88L83.92 10.88Q84.41 10.64 84.68 10.23L84.68 10.23L84.68 10.23Q84.95 9.83 84.95 9.32L84.95 9.32L84.95 5.38L84.95 5.38Q84.95 5.05 85.16 4.86L85.16 4.86L85.16 4.86Q85.36 4.66 85.67 4.66L85.67 4.66ZM95.51 1.40L95.51 1.40Q95.83 1.40 96.03 1.60L96.03 1.60L96.03 1.60Q96.22 1.79 96.22 2.11L96.22 2.11L96.22 8.50L96.22 8.50Q96.22 9.59 95.71 10.48L95.71 10.48L95.71 10.48Q95.20 11.37 94.33 11.88L94.33 11.88L94.33 11.88Q93.45 12.39 92.37 12.39L92.37 12.39L92.37 12.39Q91.29 12.39 90.41 11.88L90.41 11.88L90.41 11.88Q89.52 11.37 89.01 10.48L89.01 10.48L89.01 10.48Q88.51 9.59 88.51 8.50L88.51 8.50L88.51 8.50Q88.51 7.41 88.98 6.52L88.98 6.52L88.98 6.52Q89.45 5.63 90.27 5.12L90.27 5.12L90.27 5.12Q91.08 4.62 92.09 4.62L92.09 4.62L92.09 4.62Q92.90 4.62 93.60 4.96L93.60 4.96L93.60 4.96Q94.30 5.29 94.79 5.89L94.79 5.89L94.79 2.11L94.79 2.11Q94.79 1.79 95.00 1.60L95.00 1.60L95.00 1.60Q95.20 1.40 95.51 1.40L95.51 1.40ZM92.37 11.13L92.37 11.13Q93.07 11.13 93.64 10.79L93.64 10.79L93.64 10.79Q94.21 10.44 94.53 9.84L94.53 9.84L94.53 9.84Q94.85 9.24 94.85 8.50L94.85 8.50L94.85 8.50Q94.85 7.76 94.53 7.16L94.53 7.16L94.53 7.16Q94.21 6.57 93.64 6.22L93.64 6.22L93.64 6.22Q93.07 5.88 92.37 5.88L92.37 5.88L92.37 5.88Q91.67 5.88 91.11 6.22L91.11 6.22L91.11 6.22Q90.54 6.57 90.21 7.16L90.21 7.16L90.21 7.16Q89.88 7.76 89.88 8.50L89.88 8.50L89.88 8.50Q89.88 9.24 90.21 9.84L90.21 9.84L90.21 9.84Q90.54 10.44 91.11 10.79L91.11 10.79L91.11 10.79Q91.67 11.13 92.37 11.13L92.37 11.13ZM98.88 5.39L98.88 5.39Q98.88 5.07 99.09 4.87L99.09 4.87L99.09 4.87Q99.29 4.68 99.60 4.68L99.60 4.68L99.60 4.68Q99.92 4.68 100.11 4.87L100.11 4.87L100.11 4.87Q100.31 5.07 100.31 5.39L100.31 5.39L100.31 11.62L100.31 11.62Q100.31 11.93 100.11 12.13L100.11 12.13L100.11 12.13Q99.92 12.33 99.60 12.33L99.60 12.33L99.60 12.33Q99.29 12.33 99.09 12.13L99.09 12.13L99.09 12.13Q98.88 11.93 98.88 11.62L98.88 11.62L98.88 5.39ZM99.60 1.58L99.60 1.58Q99.97 1.58 100.25 1.85L100.25 1.85L100.25 1.85Q100.52 2.13 100.52 2.51L100.52 2.51L100.52 2.51Q100.52 2.88 100.25 3.16L100.25 3.16L100.25 3.16Q99.97 3.43 99.60 3.43L99.60 3.43L99.60 3.43Q99.22 3.43 98.95 3.16L98.95 3.16L98.95 3.16Q98.67 2.88 98.67 2.51L98.67 2.51L98.67 2.51Q98.67 2.13 98.95 1.85L98.95 1.85L98.95 1.85Q99.22 1.58 99.60 1.58L99.60 1.58ZM106.44 4.62L106.44 4.62Q107.55 4.62 108.42 5.12L108.42 5.12L108.42 5.12Q109.30 5.61 109.80 6.50L109.80 6.50L109.80 6.50Q110.29 7.38 110.29 8.51L110.29 8.51L110.29 8.51Q110.29 9.63 109.80 10.51L109.80 10.51L109.80 10.51Q109.31 11.40 108.44 11.89L108.44 11.89L108.44 11.89Q107.56 12.39 106.44 12.39L106.44 12.39L106.44 12.39Q105.32 12.39 104.44 11.89L104.44 11.89L104.44 11.89Q103.56 11.40 103.07 10.51L103.07 10.51L103.07 10.51Q102.58 9.63 102.58 8.51L102.58 8.51L102.58 8.51Q102.58 7.38 103.07 6.50L103.07 6.50L103.07 6.50Q103.56 5.61 104.44 5.12L104.44 5.12L104.44 5.12Q105.32 4.62 106.44 4.62L106.44 4.62ZM106.44 5.88L106.44 5.88Q105.73 5.88 105.16 6.22L105.16 6.22L105.16 6.22Q104.59 6.55 104.27 7.15L104.27 7.15L104.27 7.15Q103.95 7.76 103.95 8.51L103.95 8.51L103.95 8.51Q103.95 9.27 104.27 9.86L104.27 9.86L104.27 9.86Q104.59 10.46 105.16 10.79L105.16 10.79L105.16 10.79Q105.73 11.13 106.44 11.13L106.44 11.13L106.44 11.13Q107.16 11.13 107.72 10.79L107.72 10.79L107.72 10.79Q108.29 10.46 108.61 9.86L108.61 9.86L108.61 9.86Q108.92 9.27 108.92 8.51L108.92 8.51L108.92 8.51Q108.92 7.76 108.61 7.15L108.61 7.15L108.61 7.15Q108.29 6.55 107.72 6.22L107.72 6.22L107.72 6.22Q107.16 5.88 106.44 5.88L106.44 5.88ZM115.11 4.62L115.11 4.62Q116.02 4.62 116.74 4.91L116.74 4.91L116.74 4.91Q117.46 5.21 117.88 5.73L117.88 5.73L117.88 5.73Q118.06 5.95 118.06 6.17L118.06 6.17L118.06 6.17Q118.06 6.41 117.82 6.61L117.82 6.61L117.82 6.61Q117.67 6.72 117.43 6.72L117.43 6.72L117.43 6.72Q117.07 6.72 116.77 6.45L116.77 6.45L116.77 6.45Q116.42 6.13 116.03 6.00L116.03 6.00L116.03 6.00Q115.64 5.87 115.08 5.87L115.08 5.87L115.08 5.87Q114.44 5.87 114.02 6.08L114.02 6.08L114.02 6.08Q113.61 6.30 113.61 6.69L113.61 6.69L113.61 6.69Q113.61 6.97 113.75 7.16L113.75 7.16L113.75 7.16Q113.89 7.35 114.28 7.51L114.28 7.51L114.28 7.51Q114.67 7.67 115.42 7.83L115.42 7.83L115.42 7.83Q116.94 8.13 117.58 8.68L117.58 8.68L117.58 8.68Q118.22 9.23 118.22 10.09L118.22 10.09L118.22 10.09Q118.22 10.74 117.87 11.26L117.87 11.26L117.87 11.26Q117.52 11.79 116.84 12.09L116.84 12.09L116.84 12.09Q116.16 12.39 115.21 12.39L115.21 12.39L115.21 12.39Q114.25 12.39 113.41 12.10L113.41 12.10L113.41 12.10Q112.57 11.80 112.10 11.33L112.10 11.33L112.10 11.33Q111.92 11.14 111.92 10.89L111.92 10.89L111.92 10.89Q111.92 10.56 112.20 10.35L112.20 10.35L112.20 10.35Q112.46 10.15 112.69 10.15L112.69 10.15L112.69 10.15Q112.97 10.15 113.22 10.40L113.22 10.40L113.22 10.40Q113.48 10.70 114.02 10.91L114.02 10.91L114.02 10.91Q114.55 11.13 115.15 11.13L115.15 11.13L115.15 11.13Q115.95 11.13 116.39 10.86L116.39 10.86L116.39 10.86Q116.83 10.60 116.83 10.15L116.83 10.15L116.83 10.15Q116.83 9.72 116.40 9.43L116.40 9.43L116.40 9.43Q115.96 9.14 114.93 8.95L114.93 8.95L114.93 8.95Q112.24 8.43 112.24 6.73L112.24 6.73L112.24 6.73Q112.24 6.05 112.64 5.57L112.64 5.57L112.64 5.57Q113.05 5.10 113.71 4.86L113.71 4.86L113.71 4.86Q114.37 4.62 115.11 4.62L115.11 4.62Z"></path></g><!----><g data-v-423bf9ae="" id="b8aed47a-121b-4443-8650-071fd7678c0d" transform="matrix(1.2580512644628417,0,0,1.2580512644628417,-17.422705654165526,-5.244532386464286)" stroke="none" fill="white"><path d="M27.982 18.4l8.419-2.39c.583-.165 1.277.494 1.557 1.48l7.822 27.559c.28.985.035 1.911-.548 2.077l-8.418 2.39c-.583.165-1.278-.495-1.557-1.48l-7.822-27.56c-.28-.985-.036-1.911.547-2.076z"></path><path d="M30.55 4.825c-.234.006-.463.02-.7.05-1.02.13-1.959.49-2.775 1l4.25 5.2c1.382 1.454.806 3.31-1.175 2.875l-7.025-1.9-.275.725c-.696 1.81-.279 3.635.925 4.075l8.675 3.175c1.204.44 2.754-.666 3.45-2.475l.725-1.925c.074-.193.15-.383.2-.575a6.913 6.913 0 0 0 .775-4.175c-.452-3.56-3.538-6.138-7.05-6.05z"></path><path d="M28.53 18.645a1.38 1.38 0 0 0-1.557 1.185l-1.646 12.114-.009.062a2.306 2.306 0 0 0 1.984 2.534 2.306 2.306 0 0 0 2.588-1.912l.008-.063 1.646-12.113a1.38 1.38 0 0 0-1.185-1.558l-1.828-.248z"></path><path d="M29.9 32.6a2.31 2.31 0 0 0-2.03-2.477c-.028-.004-.055-.005-.084-.007l-11.872-.957a1.38 1.38 0 0 0-1.49 1.268l-.149 1.84a1.38 1.38 0 0 0 1.269 1.49l11.872.957c.028.003.055.006.083.007a2.31 2.31 0 0 0 2.401-2.12zM37.203 46.702c-.76-.11-1.478.409-1.588 1.17L33.907 59.7l-.003.02c-.282 2.036 1.107 3.91 3.123 4.201 2.016.291 3.898-1.11 4.203-3.143l.003-.02 1.708-11.83a1.38 1.38 0 0 0-1.172-1.568l-4.566-.659z"></path><path d="M35.172 58.226c-1.431 1.459-1.394 3.802.08 5.248L47.99 75.971c.548.538 1.434.515 1.972-.033l3.23-3.293a1.38 1.38 0 0 0-.018-1.958L40.436 58.19c-1.474-1.446-3.832-1.423-5.264.036zM39.586 45.097c-.74.205-1.19.968-.986 1.708l3.18 11.522.006.02c.558 1.978 2.582 3.138 4.545 2.596 1.964-.542 3.126-2.582 2.59-4.566l-.005-.02-3.18-11.521a1.38 1.38 0 0 0-1.703-.966l-4.447 1.227z"></path><path d="M42.348 56.468c-.726 1.91.248 4.042 2.178 4.776l16.68 6.339c.719.273 1.52-.104 1.794-.822l1.638-4.312a1.38 1.38 0 0 0-.802-1.786l-16.68-6.339c-1.93-.733-4.082.233-4.808 2.144zM41.528 12.825c2.236-.66 4.67.955 5.456 3.621l3.989 13.516c.786 2.666-.38 5.343-2.617 6.003-2.235.66-4.669-.955-5.455-3.62l-3.989-13.517c-.786-2.666.38-5.343 2.616-6.003z"></path><path d="M46.7 34.067c2.408 8.135 4.256 7.514 1.735-.86z"></path><path style="text-indent:0;text-transform:none;block-progression:tb" d="M43.313 26.031a1.007 1.007 0 0 0-.657.219L29.97 35.406l-13.25-1.125.625-6.187a1.007 1.007 0 1 0-2-.188l-.719 7.188a1.007 1.007 0 0 0 .906 1.093l14.625 1.25a1.007 1.007 0 0 0 .688-.187l13-9.375a1.007 1.007 0 0 0-.532-1.844zM47.858 34.793c-1.101.372-2.064.817-2.754 1.218-.345.2-.62.391-.82.587-.1.098-.19.186-.25.306a.604.604 0 0 0-.025.451c.054.16.165.264.286.324.121.06.253.094.392.111.278.034.612.02 1.008-.03.792-.1 1.82-.35 2.921-.722 1.101-.372 2.07-.797 2.76-1.198.346-.2.62-.391.82-.587.1-.098.184-.205.244-.326a.569.569 0 0 0 .052-.438.62.62 0 0 0-.313-.337c-.121-.06-.246-.074-.385-.091-.279-.034-.612-.02-1.008.03-.792.1-1.827.33-2.928.702zm.215.636c1.065-.36 2.056-.583 2.782-.675.363-.045.665-.065.849-.043.03.004.03.022.053.027l-.033.033c-.132.13-.385.296-.701.48-.633.368-1.556.791-2.622 1.151-1.065.36-2.056.584-2.782.675-.363.045-.665.066-.848.043l-.047-.006c.015-.018.005-.033.026-.054.133-.129.385-.296.701-.48.633-.367 1.556-.79 2.622-1.151zM48.795 37.568c-.822.278-1.542.61-2.058.91-.258.15-.463.292-.613.439-.075.073-.142.138-.187.229a.452.452 0 0 0-.019.337c.04.12.124.197.214.242a.91.91 0 0 0 .293.083c.208.026.458.014.754-.023.592-.074 1.36-.261 2.183-.54.823-.277 1.548-.595 2.064-.895.258-.15.463-.292.613-.439a.91.91 0 0 0 .182-.243.425.425 0 0 0 .038-.328.463.463 0 0 0-.234-.251c-.09-.045-.183-.056-.287-.069a3.134 3.134 0 0 0-.754.023c-.592.075-1.366.247-2.189.525zm.161.475c.797-.27 1.537-.436 2.08-.504.271-.034.497-.05.634-.033.022.003.023.016.04.02l-.025.025c-.099.097-.287.222-.524.359-.472.275-1.162.591-1.96.86-.796.27-1.537.437-2.079.505-.271.034-.497.049-.634.032l-.035-.005c.011-.013.003-.024.02-.04.098-.096.287-.221.524-.359a11.175 11.175 0 0 1 1.959-.86zM49.558 39.825a7.708 7.708 0 0 0-1.363.603c-.17.1-.307.194-.406.29-.05.05-.094.093-.124.152a.3.3 0 0 0-.012.224c.027.08.082.13.142.16.06.03.125.046.194.055.137.017.303.01.499-.015a7.8 7.8 0 0 0 1.446-.357 7.8 7.8 0 0 0 1.366-.594c.171-.099.307-.193.406-.29a.603.603 0 0 0 .121-.161.282.282 0 0 0 .025-.217.307.307 0 0 0-.155-.167c-.06-.03-.121-.037-.19-.045a2.074 2.074 0 0 0-.499.015c-.392.05-.905.163-1.45.347zm.107.315a7.4 7.4 0 0 1 1.377-.334c.18-.022.33-.033.42-.021.015.002.015.01.027.013l-.017.016c-.065.064-.19.147-.347.238a7.4 7.4 0 0 1-1.297.57 7.4 7.4 0 0 1-1.378.334c-.18.022-.33.032-.42.021l-.023-.003c.008-.009.003-.016.013-.026.065-.064.19-.147.347-.238a7.4 7.4 0 0 1 1.298-.57zM50.178 41.659c-.383.13-.718.284-.958.424-.12.07-.215.136-.285.204-.035.034-.066.064-.087.106a.21.21 0 0 0-.009.157.192.192 0 0 0 .1.113c.042.02.088.032.136.038.097.012.213.007.35-.01a5.48 5.48 0 0 0 1.017-.251c.383-.13.72-.277.96-.417.12-.07.215-.136.285-.204a.423.423 0 0 0 .085-.113.198.198 0 0 0 .018-.153.215.215 0 0 0-.11-.117c-.041-.02-.085-.026-.133-.032a1.456 1.456 0 0 0-.35.011 5.415 5.415 0 0 0-1.019.244zm.075.221a5.2 5.2 0 0 1 .967-.234c.127-.016.232-.023.296-.015.01 0 .01.007.018.009l-.011.011a1.386 1.386 0 0 1-.244.167 5.2 5.2 0 0 1-.912.4 5.2 5.2 0 0 1-.968.235 1.386 1.386 0 0 1-.295.015c-.008 0-.01 0-.016-.002.005-.006.002-.011.01-.018.045-.045.133-.104.243-.167.22-.128.541-.276.912-.4zM26.875 5.125l-.25.188c-2.209 1.586-3.973 3.577-4.313 6.562l-.03.281.28.094 7.5 2.031c.548.12 1.047.108 1.438-.062.391-.17.671-.5.813-.875.278-.74.013-1.68-.72-2.469l-.03-.031-4.47-5.469-.218-.25zm-.094.938l4.282 5.218.03.031c.626.659.758 1.348.595 1.782a.86.86 0 0 1-.47.5c-.233.101-.556.128-1 .031l-7.155-1.938c.374-2.484 1.798-4.191 3.718-5.624z" overflow="visible" color="#000"></path></g><!----></svg>