<svg data-v-423bf9ae="" xmlns="http://www.w3.org/2000/svg" viewBox="0 0 42.32032546752683 60" class="icon"><!----><!----><!----><!----><g data-v-423bf9ae="" id="b4c4d9af-3a77-40d9-a125-7e5d621b47b4" transform="matrix(0.8387008429752277,0,0,0.8387008429752277,-11.968489331577473,-4.044895834394566)" stroke="none" fill="black"><path d="M27.982 18.4l8.419-2.39c.583-.165 1.277.494 1.557 1.48l7.822 27.559c.28.985.035 1.911-.548 2.077l-8.418 2.39c-.583.165-1.278-.495-1.557-1.48l-7.822-27.56c-.28-.985-.036-1.911.547-2.076z"></path><path d="M30.55 4.825c-.234.006-.463.02-.7.05-1.02.13-1.959.49-2.775 1l4.25 5.2c1.382 1.454.806 3.31-1.175 2.875l-7.025-1.9-.275.725c-.696 1.81-.279 3.635.925 4.075l8.675 3.175c1.204.44 2.754-.666 3.45-2.475l.725-1.925c.074-.193.15-.383.2-.575a6.913 6.913 0 0 0 .775-4.175c-.452-3.56-3.538-6.138-7.05-6.05z"></path><path d="M28.53 18.645a1.38 1.38 0 0 0-1.557 1.185l-1.646 12.114-.009.062a2.306 2.306 0 0 0 1.984 2.534 2.306 2.306 0 0 0 2.588-1.912l.008-.063 1.646-12.113a1.38 1.38 0 0 0-1.185-1.558l-1.828-.248z"></path><path d="M29.9 32.6a2.31 2.31 0 0 0-2.03-2.477c-.028-.004-.055-.005-.084-.007l-11.872-.957a1.38 1.38 0 0 0-1.49 1.268l-.149 1.84a1.38 1.38 0 0 0 1.269 1.49l11.872.957c.028.003.055.006.083.007a2.31 2.31 0 0 0 2.401-2.12zM37.203 46.702c-.76-.11-1.478.409-1.588 1.17L33.907 59.7l-.003.02c-.282 2.036 1.107 3.91 3.123 4.201 2.016.291 3.898-1.11 4.203-3.143l.003-.02 1.708-11.83a1.38 1.38 0 0 0-1.172-1.568l-4.566-.659z"></path><path d="M35.172 58.226c-1.431 1.459-1.394 3.802.08 5.248L47.99 75.971c.548.538 1.434.515 1.972-.033l3.23-3.293a1.38 1.38 0 0 0-.018-1.958L40.436 58.19c-1.474-1.446-3.832-1.423-5.264.036zM39.586 45.097c-.74.205-1.19.968-.986 1.708l3.18 11.522.006.02c.558 1.978 2.582 3.138 4.545 2.596 1.964-.542 3.126-2.582 2.59-4.566l-.005-.02-3.18-11.521a1.38 1.38 0 0 0-1.703-.966l-4.447 1.227z"></path><path d="M42.348 56.468c-.726 1.91.248 4.042 2.178 4.776l16.68 6.339c.719.273 1.52-.104 1.794-.822l1.638-4.312a1.38 1.38 0 0 0-.802-1.786l-16.68-6.339c-1.93-.733-4.082.233-4.808 2.144zM41.528 12.825c2.236-.66 4.67.955 5.456 3.621l3.989 13.516c.786 2.666-.38 5.343-2.617 6.003-2.235.66-4.669-.955-5.455-3.62l-3.989-13.517c-.786-2.666.38-5.343 2.616-6.003z"></path><path d="M46.7 34.067c2.408 8.135 4.256 7.514 1.735-.86z"></path><path style="text-indent:0;text-transform:none;block-progression:tb" d="M43.313 26.031a1.007 1.007 0 0 0-.657.219L29.97 35.406l-13.25-1.125.625-6.187a1.007 1.007 0 1 0-2-.188l-.719 7.188a1.007 1.007 0 0 0 .906 1.093l14.625 1.25a1.007 1.007 0 0 0 .688-.187l13-9.375a1.007 1.007 0 0 0-.532-1.844zM47.858 34.793c-1.101.372-2.064.817-2.754 1.218-.345.2-.62.391-.82.587-.1.098-.19.186-.25.306a.604.604 0 0 0-.025.451c.054.16.165.264.286.324.121.06.253.094.392.111.278.034.612.02 1.008-.03.792-.1 1.82-.35 2.921-.722 1.101-.372 2.07-.797 2.76-1.198.346-.2.62-.391.82-.587.1-.098.184-.205.244-.326a.569.569 0 0 0 .052-.438.62.62 0 0 0-.313-.337c-.121-.06-.246-.074-.385-.091-.279-.034-.612-.02-1.008.03-.792.1-1.827.33-2.928.702zm.215.636c1.065-.36 2.056-.583 2.782-.675.363-.045.665-.065.849-.043.03.004.03.022.053.027l-.033.033c-.132.13-.385.296-.701.48-.633.368-1.556.791-2.622 1.151-1.065.36-2.056.584-2.782.675-.363.045-.665.066-.848.043l-.047-.006c.015-.018.005-.033.026-.054.133-.129.385-.296.701-.48.633-.367 1.556-.79 2.622-1.151zM48.795 37.568c-.822.278-1.542.61-2.058.91-.258.15-.463.292-.613.439-.075.073-.142.138-.187.229a.452.452 0 0 0-.019.337c.04.12.124.197.214.242a.91.91 0 0 0 .293.083c.208.026.458.014.754-.023.592-.074 1.36-.261 2.183-.54.823-.277 1.548-.595 2.064-.895.258-.15.463-.292.613-.439a.91.91 0 0 0 .182-.243.425.425 0 0 0 .038-.328.463.463 0 0 0-.234-.251c-.09-.045-.183-.056-.287-.069a3.134 3.134 0 0 0-.754.023c-.592.075-1.366.247-2.189.525zm.161.475c.797-.27 1.537-.436 2.08-.504.271-.034.497-.05.634-.033.022.003.023.016.04.02l-.025.025c-.099.097-.287.222-.524.359-.472.275-1.162.591-1.96.86-.796.27-1.537.437-2.079.505-.271.034-.497.049-.634.032l-.035-.005c.011-.013.003-.024.02-.04.098-.096.287-.221.524-.359a11.175 11.175 0 0 1 1.959-.86zM49.558 39.825a7.708 7.708 0 0 0-1.363.603c-.17.1-.307.194-.406.29-.05.05-.094.093-.124.152a.3.3 0 0 0-.012.224c.027.08.082.13.142.16.06.03.125.046.194.055.137.017.303.01.499-.015a7.8 7.8 0 0 0 1.446-.357 7.8 7.8 0 0 0 1.366-.594c.171-.099.307-.193.406-.29a.603.603 0 0 0 .121-.161.282.282 0 0 0 .025-.217.307.307 0 0 0-.155-.167c-.06-.03-.121-.037-.19-.045a2.074 2.074 0 0 0-.499.015c-.392.05-.905.163-1.45.347zm.107.315a7.4 7.4 0 0 1 1.377-.334c.18-.022.33-.033.42-.021.015.002.015.01.027.013l-.017.016c-.065.064-.19.147-.347.238a7.4 7.4 0 0 1-1.297.57 7.4 7.4 0 0 1-1.378.334c-.18.022-.33.032-.42.021l-.023-.003c.008-.009.003-.016.013-.026.065-.064.19-.147.347-.238a7.4 7.4 0 0 1 1.298-.57zM50.178 41.659c-.383.13-.718.284-.958.424-.12.07-.215.136-.285.204-.035.034-.066.064-.087.106a.21.21 0 0 0-.009.157.192.192 0 0 0 .1.113c.042.02.088.032.136.038.097.012.213.007.35-.01a5.48 5.48 0 0 0 1.017-.251c.383-.13.72-.277.96-.417.12-.07.215-.136.285-.204a.423.423 0 0 0 .085-.113.198.198 0 0 0 .018-.153.215.215 0 0 0-.11-.117c-.041-.02-.085-.026-.133-.032a1.456 1.456 0 0 0-.35.011 5.415 5.415 0 0 0-1.019.244zm.075.221a5.2 5.2 0 0 1 .967-.234c.127-.016.232-.023.296-.015.01 0 .01.007.018.009l-.011.011a1.386 1.386 0 0 1-.244.167 5.2 5.2 0 0 1-.912.4 5.2 5.2 0 0 1-.968.235 1.386 1.386 0 0 1-.295.015c-.008 0-.01 0-.016-.002.005-.006.002-.011.01-.018.045-.045.133-.104.243-.167.22-.128.541-.276.912-.4zM26.875 5.125l-.25.188c-2.209 1.586-3.973 3.577-4.313 6.562l-.03.281.28.094 7.5 2.031c.548.12 1.047.108 1.438-.062.391-.17.671-.5.813-.875.278-.74.013-1.68-.72-2.469l-.03-.031-4.47-5.469-.218-.25zm-.094.938l4.282 5.218.03.031c.626.659.758 1.348.595 1.782a.86.86 0 0 1-.47.5c-.233.101-.556.128-1 .031l-7.155-1.938c.374-2.484 1.798-4.191 3.718-5.624z" overflow="visible" color="#000"></path></g><!----></svg>