<svg data-v-423bf9ae="" xmlns="http://www.w3.org/2000/svg" viewBox="0 0 482.31011088325033 163" class="iconAbove"><!----><!----><!----><g data-v-423bf9ae="" id="180d89e2-fb42-4b29-ba42-bb9b3a9f3d7b" fill="white" transform="matrix(6.243496581012949,0,0,6.243496581012949,-0.8740845412876581,54.42559874374986)"><path d="M4.37 10.15L4.37 17.18L2.28 17.18L2.28 10.15L0.14 10.15L0.14 8.43L6.51 8.43L6.51 10.15L4.37 10.15ZM8.65 10.18L9.28 11.20L9.28 11.20Q10.26 10.25 11.27 9.97L11.27 9.97L11.42 12.00L11.42 12.00Q11.03 12.08 10.51 12.30L10.51 12.30L10.51 12.30Q10.00 12.52 9.72 12.73L9.72 12.73L9.72 17.18L7.63 17.18L7.63 10.18L8.65 10.18ZM15.54 10.01L15.54 10.01Q17.08 10.01 17.75 10.52L17.75 10.52L17.75 10.52Q18.42 11.03 18.42 12.21L18.42 12.21L18.42 17.18L17.42 17.18L16.87 16.48L16.87 16.48Q15.83 17.35 14.43 17.35L14.43 17.35L14.43 17.35Q13.22 17.35 12.68 16.82L12.68 16.82L12.68 16.82Q12.14 16.30 12.14 15.12L12.14 15.12L12.14 15.12Q12.14 14.18 12.46 13.71L12.46 13.71L12.46 13.71Q12.78 13.23 13.59 13.04L13.59 13.04L13.59 13.04Q14.41 12.85 16.03 12.85L16.03 12.85L16.34 12.85L16.34 11.68L16.34 11.68Q15.99 11.56 15.27 11.56L15.27 11.56L15.27 11.56Q14.07 11.56 12.71 11.91L12.71 11.91L12.45 10.46L12.45 10.46Q13.10 10.23 13.91 10.12L13.91 10.12L13.91 10.12Q14.71 10.01 15.54 10.01L15.54 10.01ZM15.29 15.88L15.29 15.88Q15.89 15.88 16.11 15.74L16.11 15.74L16.11 15.74Q16.34 15.60 16.34 15.20L16.34 15.20L16.34 14L15.11 14L15.11 14Q14.49 14 14.27 14.15L14.27 14.15L14.27 14.15Q14.06 14.29 14.06 14.70L14.06 14.70L14.06 15.88L15.29 15.88ZM24.42 7.97L26.50 7.78L26.50 17.18L25.49 17.18L25.09 16.55L25.09 16.55Q24.75 17.00 24.21 17.19L24.21 17.19L24.21 17.19Q23.67 17.39 22.83 17.39L22.83 17.39L22.83 17.39Q21.74 17.39 21.13 17.05L21.13 17.05L21.13 17.05Q20.52 16.70 20.25 15.90L20.25 15.90L20.25 15.90Q19.98 15.11 19.98 13.68L19.98 13.68L19.98 13.68Q19.98 12.29 20.24 11.50L20.24 11.50L20.24 11.50Q20.50 10.71 21.08 10.36L21.08 10.36L21.08 10.36Q21.67 10.01 22.69 10.01L22.69 10.01L22.69 10.01Q23.80 10.01 24.42 10.29L24.42 10.29L24.42 7.97ZM23.83 15.78L23.83 15.78Q24.18 15.78 24.30 15.70L24.30 15.70L24.30 15.70Q24.42 15.62 24.42 15.40L24.42 15.40L24.42 11.62L22.81 11.62L22.81 11.62Q22.46 11.62 22.33 11.70L22.33 11.70L22.33 11.70Q22.20 11.77 22.20 11.98L22.20 11.98L22.20 15.78L23.83 15.78ZM31.60 15.79L31.60 15.79Q32.66 15.79 34.05 15.44L34.05 15.44L34.31 16.90L34.31 16.90Q33.04 17.35 31.33 17.35L31.33 17.35L31.33 17.35Q30.14 17.35 29.45 17.00L29.45 17.00L29.45 17.00Q28.76 16.65 28.44 15.85L28.44 15.85L28.44 15.85Q28.13 15.05 28.13 13.68L28.13 13.68L28.13 13.68Q28.13 12.33 28.45 11.54L28.45 11.54L28.45 11.54Q28.78 10.74 29.50 10.37L29.50 10.37L29.50 10.37Q30.23 10.01 31.44 10.01L31.44 10.01L31.44 10.01Q32.65 10.01 33.30 10.21L33.30 10.21L33.30 10.21Q33.95 10.40 34.22 10.88L34.22 10.88L34.22 10.88Q34.50 11.35 34.50 12.24L34.50 12.24L34.50 12.24Q34.50 13.17 34.15 13.65L34.15 13.65L34.15 13.65Q33.81 14.13 32.94 14.32L32.94 14.32L32.94 14.32Q32.07 14.50 30.35 14.50L30.35 14.50L30.35 15.68L30.35 15.68Q30.79 15.79 31.60 15.79L31.60 15.79ZM31.42 11.58L31.42 11.58Q30.80 11.58 30.58 11.73L30.58 11.73L30.58 11.73Q30.35 11.87 30.35 12.26L30.35 12.26L30.35 13.36L31.54 13.36L31.54 13.36Q32.16 13.36 32.39 13.21L32.39 13.21L32.39 13.21Q32.62 13.06 32.62 12.66L32.62 12.66L32.62 11.58L31.42 11.58ZM39.23 15.25L39.23 15.25Q40.56 15.64 42.03 15.64L42.03 15.64L42.03 15.64Q42.74 15.64 43.39 15.55L43.39 15.55L43.39 13.86L42.10 13.75L42.10 13.75Q40.91 13.65 40.26 13.38L40.26 13.38L40.26 13.38Q39.61 13.12 39.33 12.59L39.33 12.59L39.33 12.59Q39.05 12.07 39.05 11.14L39.05 11.14L39.05 11.14Q39.05 10.05 39.35 9.42L39.35 9.42L39.35 9.42Q39.65 8.79 40.31 8.51L40.31 8.51L40.31 8.51Q40.96 8.22 42.11 8.22L42.11 8.22L42.11 8.22Q43.67 8.22 45.18 8.55L45.18 8.55L44.91 10.22L44.91 10.22Q44.24 10.08 43.69 10.03L43.69 10.03L43.69 10.03Q43.15 9.98 42.49 9.98L42.49 9.98L42.49 9.98Q41.78 9.98 41.30 10.05L41.30 10.05L41.30 11.76L42.59 11.86L42.59 11.86Q43.72 11.96 44.39 12.25L44.39 12.25L44.39 12.25Q45.05 12.54 45.35 13.11L45.35 13.11L45.35 13.11Q45.64 13.68 45.64 14.60L45.64 14.60L45.64 14.60Q45.64 15.61 45.29 16.22L45.29 16.22L45.29 16.22Q44.94 16.83 44.18 17.11L44.18 17.11L44.18 17.11Q43.43 17.39 42.17 17.39L42.17 17.39L42.17 17.39Q40.39 17.39 38.93 16.97L38.93 16.97L39.23 15.25ZM50.19 15.79L50.19 15.79Q51.25 15.79 52.64 15.44L52.64 15.44L52.91 16.90L52.91 16.90Q51.63 17.35 49.92 17.35L49.92 17.35L49.92 17.35Q48.73 17.35 48.04 17.00L48.04 17.00L48.04 17.00Q47.35 16.65 47.03 15.85L47.03 15.85L47.03 15.85Q46.72 15.05 46.72 13.68L46.72 13.68L46.72 13.68Q46.72 12.33 47.05 11.54L47.05 11.54L47.05 11.54Q47.38 10.74 48.10 10.37L48.10 10.37L48.10 10.37Q48.82 10.01 50.04 10.01L50.04 10.01L50.04 10.01Q51.24 10.01 51.89 10.21L51.89 10.21L51.89 10.21Q52.54 10.40 52.81 10.88L52.81 10.88L52.81 10.88Q53.09 11.35 53.09 12.24L53.09 12.24L53.09 12.24Q53.09 13.17 52.75 13.65L52.75 13.65L52.75 13.65Q52.40 14.13 51.53 14.32L51.53 14.32L51.53 14.32Q50.67 14.50 48.94 14.50L48.94 14.50L48.94 15.68L48.94 15.68Q49.38 15.79 50.19 15.79L50.19 15.79ZM50.01 11.58L50.01 11.58Q49.39 11.58 49.17 11.73L49.17 11.73L49.17 11.73Q48.94 11.87 48.94 12.26L48.94 12.26L48.94 13.36L50.13 13.36L50.13 13.36Q50.75 13.36 50.98 13.21L50.98 13.21L50.98 13.21Q51.21 13.06 51.21 12.66L51.21 12.66L51.21 11.58L50.01 11.58ZM57.34 17.35L57.34 17.35Q56.27 17.35 55.65 17.00L55.65 17.00L55.65 17.00Q55.03 16.65 54.76 15.86L54.76 15.86L54.76 15.86Q54.49 15.06 54.49 13.68L54.49 13.68L54.49 13.68Q54.49 12.29 54.76 11.50L54.76 11.50L54.76 11.50Q55.03 10.71 55.65 10.36L55.65 10.36L55.65 10.36Q56.27 10.01 57.34 10.01L57.34 10.01L57.34 10.01Q57.95 10.01 58.62 10.09L58.62 10.09L58.62 10.09Q59.29 10.16 59.67 10.28L59.67 10.28L59.46 11.76L59.46 11.76Q58.60 11.56 57.79 11.56L57.79 11.56L57.79 11.56Q57.19 11.56 56.95 11.82L56.95 11.82L56.95 11.82Q56.70 12.07 56.70 12.67L56.70 12.67L56.70 15.68L56.70 15.68Q57.08 15.79 57.78 15.79L57.78 15.79L57.78 15.79Q58.67 15.79 59.63 15.44L59.63 15.44L59.81 16.90L59.81 16.90Q58.74 17.35 57.34 17.35L57.34 17.35ZM62.17 10.18L62.80 11.20L62.80 11.20Q63.78 10.25 64.79 9.97L64.79 9.97L64.95 12.00L64.95 12.00Q64.55 12.08 64.04 12.30L64.04 12.30L64.04 12.30Q63.52 12.52 63.24 12.73L63.24 12.73L63.24 17.18L61.15 17.18L61.15 10.18L62.17 10.18ZM69.20 15.79L69.20 15.79Q70.27 15.79 71.65 15.44L71.65 15.44L71.92 16.90L71.92 16.90Q70.64 17.35 68.94 17.35L68.94 17.35L68.94 17.35Q67.75 17.35 67.05 17.00L67.05 17.00L67.05 17.00Q66.36 16.65 66.05 15.85L66.05 15.85L66.05 15.85Q65.73 15.05 65.73 13.68L65.73 13.68L65.73 13.68Q65.73 12.33 66.06 11.54L66.06 11.54L66.06 11.54Q66.39 10.74 67.11 10.37L67.11 10.37L67.11 10.37Q67.83 10.01 69.05 10.01L69.05 10.01L69.05 10.01Q70.25 10.01 70.90 10.21L70.90 10.21L70.90 10.21Q71.55 10.40 71.83 10.88L71.83 10.88L71.83 10.88Q72.10 11.35 72.10 12.24L72.10 12.24L72.10 12.24Q72.10 13.17 71.76 13.65L71.76 13.65L71.76 13.65Q71.41 14.13 70.55 14.32L70.55 14.32L70.55 14.32Q69.68 14.50 67.96 14.50L67.96 14.50L67.96 15.68L67.96 15.68Q68.39 15.79 69.20 15.79L69.20 15.79ZM69.02 11.58L69.02 11.58Q68.40 11.58 68.18 11.73L68.18 11.73L68.18 11.73Q67.96 11.87 67.96 12.26L67.96 12.26L67.96 13.36L69.15 13.36L69.15 13.36Q69.76 13.36 69.99 13.21L69.99 13.21L69.99 13.21Q70.22 13.06 70.22 12.66L70.22 12.66L70.22 11.58L69.02 11.58ZM77.39 11.55L76.29 11.55L76.29 15.67L76.29 15.67Q76.72 15.74 77.20 15.75L77.20 15.75L77.10 17.16L77.10 17.16Q76.20 17.35 75.61 17.35L75.61 17.35L75.61 17.35Q74.89 17.35 74.54 17.04L74.54 17.04L74.54 17.04Q74.20 16.73 74.20 16.07L74.20 16.07L74.20 11.55L73.36 11.55L73.36 10.18L74.20 10.18L74.20 8.86L76.29 8.34L76.29 10.18L77.39 10.18L77.39 11.55Z"></path></g><!----><g data-v-423bf9ae="" id="6968539d-e55f-41a6-bd3c-cac1b1d8c262" transform="matrix(1.0238442014856592,0,0,1.0238442014856592,190.4236789403709,-6.143065208913953)" stroke="none" fill="white"><path d="M92 62.108v31.796H7.213V62.108l42.393 12.469zM88.883 42.159a1.868 1.868 0 0 1-1.87 1.871H12.2a1.868 1.868 0 0 1-1.871-1.871c0-1.035.836-1.871 1.871-1.871h8.903L30.903 6l18.703 12.469 18.702-7.481 10.985 29.301h7.719c1.036 0 1.871.836 1.871 1.87zM76.414 53.382c0 3.777-3.079 6.857-6.857 6.857-3.13 0-5.785-2.12-6.596-4.987H55.84a1.868 1.868 0 0 1-1.869-1.87c0-1.036.835-1.87 1.869-1.87h18.704c1.035 0 1.87.834 1.87 1.87zM45.242 53.382c0 3.777-3.08 6.857-6.857 6.857-3.129 0-5.786-2.12-6.596-4.987h-7.12a1.869 1.869 0 0 1-1.871-1.87c0-1.036.836-1.87 1.871-1.87h18.703c1.035 0 1.87.834 1.87 1.87z"></path></g><!----></svg>