<svg data-v-fde0c5aa="" xmlns="http://www.w3.org/2000/svg" viewBox="0 0 300 300" class="icon"><!----><defs data-v-fde0c5aa=""><!----></defs><rect data-v-fde0c5aa="" fill="transparent" x="0" y="0" width="300px" height="300px" class="logo-background-square"></rect><!----><defs data-v-fde0c5aa=""><linearGradient data-v-fde0c5aa="" gradientTransform="rotate(25)" id="30dda26c-d452-4ec7-8aff-1abbc51ca0b5" x1="0%" y1="0%" x2="100%" y2="0%"><stop data-v-fde0c5aa="" offset="0%" stop-color="#693F24" stop-opacity="1"></stop><stop data-v-fde0c5aa="" offset="100%" stop-color="#9C9289" stop-opacity="1"></stop></linearGradient></defs><g data-v-fde0c5aa="" id="935d8fda-8cc8-413e-af8e-233605e84036" fill="url(#30dda26c-d452-4ec7-8aff-1abbc51ca0b5)" stroke="none" transform="matrix(2.5027302702982785,0,0,2.5027302702982785,25.848308087319698,24.98361837821033)"><path d="M92 62.108v31.796H7.213V62.108l42.393 12.469zM88.883 42.159a1.868 1.868 0 0 1-1.87 1.871H12.2a1.868 1.868 0 0 1-1.871-1.871c0-1.035.836-1.871 1.871-1.871h8.903L30.903 6l18.703 12.469 18.702-7.481 10.985 29.301h7.719c1.036 0 1.871.836 1.871 1.87zM76.414 53.382c0 3.777-3.079 6.857-6.857 6.857-3.13 0-5.785-2.12-6.596-4.987H55.84a1.868 1.868 0 0 1-1.869-1.87c0-1.036.835-1.87 1.869-1.87h18.704c1.035 0 1.87.834 1.87 1.87zM45.242 53.382c0 3.777-3.08 6.857-6.857 6.857-3.129 0-5.786-2.12-6.596-4.987h-7.12a1.869 1.869 0 0 1-1.871-1.87c0-1.036.836-1.87 1.871-1.87h18.703c1.035 0 1.87.834 1.87 1.87z"></path></g><!----></svg>