<svg data-v-423bf9ae="" xmlns="http://www.w3.org/2000/svg" viewBox="0 0 57.87245395731014 60" class="icon"><!----><!----><!----><!----><g data-v-423bf9ae="" id="cffd4b14-8552-4439-80d5-5fbafc57353a" transform="matrix(0.6825628009904395,0,0,0.6825628009904395,-4.923325971871456,-4.095376805942635)" stroke="none" fill="black"><path d="M92 62.108v31.796H7.213V62.108l42.393 12.469zM88.883 42.159a1.868 1.868 0 0 1-1.87 1.871H12.2a1.868 1.868 0 0 1-1.871-1.871c0-1.035.836-1.871 1.871-1.871h8.903L30.903 6l18.703 12.469 18.702-7.481 10.985 29.301h7.719c1.036 0 1.871.836 1.871 1.87zM76.414 53.382c0 3.777-3.079 6.857-6.857 6.857-3.13 0-5.785-2.12-6.596-4.987H55.84a1.868 1.868 0 0 1-1.869-1.87c0-1.036.835-1.87 1.869-1.87h18.704c1.035 0 1.87.834 1.87 1.87zM45.242 53.382c0 3.777-3.08 6.857-6.857 6.857-3.129 0-5.786-2.12-6.596-4.987h-7.12a1.869 1.869 0 0 1-1.871-1.87c0-1.036.836-1.87 1.871-1.87h18.703c1.035 0 1.87.834 1.87 1.87z"></path></g><!----></svg>